<?xml version="1.0" encoding="UTF-8" standalone="no"?>
<!-- Created with Inkscape (http://www.inkscape.org/) -->

<svg
   xmlns:osb="http://www.openswatchbook.org/uri/2009/osb"
   xmlns:dc="http://purl.org/dc/elements/1.1/"
   xmlns:cc="http://creativecommons.org/ns#"
   xmlns:rdf="http://www.w3.org/1999/02/22-rdf-syntax-ns#"
   xmlns:svg="http://www.w3.org/2000/svg"
   xmlns="http://www.w3.org/2000/svg"
   xmlns:xlink="http://www.w3.org/1999/xlink"
   xmlns:sodipodi="http://sodipodi.sourceforge.net/DTD/sodipodi-0.dtd"
   xmlns:inkscape="http://www.inkscape.org/namespaces/inkscape"
   width="9.1141167mm"
   height="13.259035mm"
   viewBox="0 0 32.294114 46.980834"
   id="svg2"
   version="1.1"
   inkscape:version="0.91 r13725"
   sodipodi:docname="weapon-hammer.svg">
  <defs
     id="defs4">
    <linearGradient
       inkscape:collect="always"
       id="linearGradient4540">
      <stop
         style="stop-color:#916f6f;stop-opacity:1;"
         offset="0"
         id="stop4542" />
      <stop
         style="stop-color:#916f6f;stop-opacity:0;"
         offset="1"
         id="stop4544" />
    </linearGradient>
    <linearGradient
       id="linearGradient4411"
       osb:paint="solid">
      <stop
         style="stop-color:#8e9999;stop-opacity:1;"
         offset="0"
         id="stop4413" />
    </linearGradient>
    <inkscape:perspective
       sodipodi:type="inkscape:persp3d"
       inkscape:vp_x="1.25 : 28.310012 : 1"
       inkscape:vp_y="0 : 1000 : 0"
       inkscape:vp_z="49.47717 : 24.738584 : 1"
       inkscape:persp3d-origin="24.738585 : 16.492389 : 1"
       id="perspective3559" />
    <radialGradient
       inkscape:collect="always"
       xlink:href="#linearGradient4540"
       id="radialGradient4548"
       cx="49.74136"
       cy="19.192017"
       fx="49.74136"
       fy="19.192017"
       r="0.64487094"
       gradientTransform="matrix(1,0,0,7.6379321,-0.15625,-127.59842)"
       gradientUnits="userSpaceOnUse" />
  </defs>
  <sodipodi:namedview
     id="base"
     pagecolor="#ffffff"
     bordercolor="#666666"
     borderopacity="1.0"
     inkscape:pageopacity="0.0"
     inkscape:pageshadow="2"
     inkscape:zoom="22.627417"
     inkscape:cx="11.786782"
     inkscape:cy="42.02174"
     inkscape:document-units="px"
     inkscape:current-layer="layer2"
     showgrid="false"
     fit-margin-top="0"
     fit-margin-left="0"
     fit-margin-right="0"
     fit-margin-bottom="0"
     inkscape:window-width="1920"
     inkscape:window-height="1027"
     inkscape:window-x="0"
     inkscape:window-y="0"
     inkscape:window-maximized="1" />
  <metadata
     id="metadata7">
    <rdf:RDF>
      <cc:Work
         rdf:about="">
        <dc:format>image/svg+xml</dc:format>
        <dc:type
           rdf:resource="http://purl.org/dc/dcmitype/StillImage" />
        <dc:title></dc:title>
      </cc:Work>
    </rdf:RDF>
  </metadata>
  <g
     inkscape:groupmode="layer"
     id="layer3"
     inkscape:label="Calque 3"
     transform="translate(-7.0852377,-4.9573402)">
    <path
       style="fill:#aa4400;fill-opacity:1;fill-rule:evenodd;stroke:#000000;stroke-width:0.5;stroke-linecap:butt;stroke-linejoin:miter;stroke-miterlimit:4;stroke-dasharray:none;stroke-opacity:1"
       d="m 21.086934,20.685441 c -0.02104,0.08418 -0.04612,0.167453 -0.06313,0.252538 -0.01136,0.05682 0,0.13132 0,0.189404 0,0.147313 0,0.294627 0,0.441941 0,0.462987 0,0.925973 0,1.38896 0,1.38896 0,2.77792 0,4.166879 0,0.420897 0,0.841794 0,1.262691 0,0.01531 0.002,0.187373 0,0.189404 -0.01488,0.01488 -0.04825,-0.01488 -0.06314,0 -0.01488,0.01488 0,0.04209 0,0.06313 0,0.02105 0,0.04209 0,0.06314 0,0.105224 0,0.210448 0,0.315672 0,0.02105 0,0.04209 0,0.06313 0,0.02105 0.0094,0.04431 0,0.06313 -0.07801,0.156031 -0.06313,-0.02179 -0.06313,0.126269 0,0.273583 0,0.547166 0,0.820749 0,0.126269 0,0.252538 0,0.378808 0,0.02843 0.0096,0.170189 0,0.189403 -0.01331,0.02662 -0.04983,0.03652 -0.06313,0.06314 -0.0083,0.0166 0,0.219523 0,0.252538 0,0.168359 0,0.336717 0,0.505076 0,0.01531 0.002,0.187373 0,0.189404 -0.01488,0.01488 -0.04825,-0.01488 -0.06313,0 -0.01488,0.01488 0,0.04209 0,0.06313 0,0.02105 0,0.04209 0,0.06313 0,0.04475 0.0082,0.362484 0,0.378807 -0.01331,0.02662 -0.04982,0.03652 -0.06313,0.06314 -0.02525,0.05051 0.02525,0.138895 0,0.189403 -0.01331,0.02662 -0.04982,0.03652 -0.06313,0.06314 -0.01142,0.02283 0,0.27176 0,0.315672 0,0.02105 0.01488,0.04825 0,0.06314 -0.01488,0.01488 -0.04825,-0.01488 -0.06313,0 -0.01488,0.01488 0,0.04209 0,0.06313 0,0.02105 0,0.04209 0,0.06314 0,0.168359 0,0.336717 0,0.505076 0,0.02105 0,0.04209 0,0.06314 0,0.02105 0.01488,0.04825 0,0.06313 -0.01488,0.01488 -0.04825,-0.01488 -0.06313,0 -0.002,0.002 0,0.174092 0,0.189404 0,0.147314 0,0.294628 0,0.441942 0,0.02104 0.01488,0.04825 0,0.06313 -0.01488,0.01488 -0.04825,-0.01488 -0.06313,0 -0.01488,0.01488 0,0.04209 0,0.06314 0,0.02105 0,0.04209 0,0.06313 0,0.147314 0,0.294628 0,0.441942 0,0.02104 0.01488,0.04825 0,0.06313 -0.01488,0.01488 -0.04825,-0.01488 -0.06313,0 -0.002,0.002 0,0.174092 0,0.189404 0,0.04391 0.01141,0.292841 0,0.315673 -0.01331,0.02662 -0.04983,0.03651 -0.06314,0.06313 -0.01142,0.02283 0,0.27176 0,0.315673 0,0.02104 0.01488,0.04825 0,0.06313 -0.01488,0.01488 -0.04825,-0.01488 -0.06313,0 -0.01488,0.01488 0,0.04209 0,0.06313 0,0.02105 0,0.04209 0,0.06314 0,0.294627 0,0.589255 0,0.883883 0,0.189404 0,0.378807 0,0.568211 0,0.02105 0,0.04209 0,0.06313 0,0.02105 -0.01488,0.04825 0,0.06314 0.01488,0.01488 0.04825,-0.01488 0.06313,0 0.002,0.002 0,0.174092 0,0.189404 0,0.210448 0,0.420896 0,0.631345 0,0.02105 0,0.04209 0,0.06313 0,0.02105 -0.01488,0.04825 0,0.06314 0.01488,0.01488 0.04825,-0.01488 0.06314,0 0.01488,0.01488 0,0.04209 0,0.06313 0,0.02105 0,0.04209 0,0.06314 0,0.04475 -0.0082,0.362484 0,0.378807 0.01331,0.02662 0.04982,0.03652 0.06313,0.06314 0.01917,0.03834 -0.01917,0.34047 0,0.378807 0.01331,0.02662 0.04982,0.03652 0.06313,0.06313 0.01991,0.03983 -0.01991,0.275843 0,0.315673 0.01331,0.02662 0.04982,0.03652 0.06313,0.06314 0.0094,0.01882 0,0.04209 0,0.06313 0,0.02105 0,0.04209 0,0.06314 0,0.126269 0,0.252538 0,0.378807 0,0.02105 0,0.04209 0,0.06313 0,0.02105 -0.0094,0.04431 0,0.06314 0.01331,0.02662 0.04982,0.03651 0.06313,0.06313 0.0082,0.01632 0,0.334057 0,0.378807 0,0.02105 0,0.04209 0,0.06313 0,0.02105 -0.01488,0.04825 0,0.06314 0.01488,0.01488 0.04825,-0.01488 0.06313,0 0.02216,0.02216 -0.0218,0.272063 0,0.315672 0.01331,0.02662 0.04982,0.03652 0.06313,0.06314 0.01713,0.03425 -0.01728,0.235263 0,0.252538 0.01488,0.01488 0.04825,-0.01488 0.06313,0 0.01727,0.01728 -0.01713,0.218289 0,0.252538 0.01331,0.02662 0.04982,0.03652 0.06313,0.06314 0.01984,0.03968 -0.01984,0.212857 0,0.252538 0.01331,0.02662 0.04982,0.03652 0.06313,0.06313 0.01917,0.03834 -0.01917,0.34047 0,0.378807 0.01331,0.02662 0.04983,0.03651 0.06314,0.06313 0.0094,0.01882 0,0.04209 0,0.06314 0,0.02105 0,0.04209 0,0.06313 0,0.105225 0,0.210449 0,0.315673 0,0.02105 -0.0094,0.04431 0,0.06313 0.01331,0.02662 0.04982,0.03651 0.06313,0.06313 0.0083,0.0166 0,0.219524 0,0.252538 0,0.231493 0,0.462987 0,0.69448 0,0.02318 -0.0025,0.249998 0,0.252538 0.01488,0.01488 0.04825,-0.01488 0.06313,0 0.01488,0.01488 0,0.04209 0,0.06314 0,0.105224 0,0.210448 0,0.315672 0,0.484032 0,0.968063 0,1.452095 0,0.189403 0,0.378807 0,0.56821 0,0.02105 0,0.04209 0,0.06314 0,0.02105 0.01488,0.04825 0,0.06313 -0.01488,0.01488 -0.04825,-0.01488 -0.06313,0 -0.01488,0.01488 0,0.04209 0,0.06313 0,0.02105 0,0.04209 0,0.06313 0,0.294627 0,0.589255 0,0.883883 0,0.462987 0,0.925973 0,1.38896 0,0.168359 0,0.336717 0,0.505076 0,0.03301 -0.0083,0.235938 0,0.252538 0.01331,0.02662 0.04983,0.03651 0.06313,0.06313 0.0082,0.01632 0,0.334057 0,0.378807 0,0.02105 -0.01488,0.04825 0,0.06314 0.01488,0.01488 0.04825,-0.01488 0.06313,0 0.0025,0.0025 0,0.229352 0,0.252538 0,0.174831 0.06313,-0.04856 0.06313,0.126269 0,0.02105 0,0.04209 0,0.06313 0,0.02104 -0.01488,0.04825 0,0.06313 0.01488,0.01488 0.04825,-0.01488 0.06314,0 0.01488,0.01488 -0.01488,0.04825 0,0.06313 0.01488,0.01488 0.04825,-0.01488 0.06313,0 0.01488,0.01488 -0.01488,0.04825 0,0.06314 0.01488,0.01488 0.04825,-0.01488 0.06313,0 0.01488,0.01488 -0.01488,0.04825 0,0.06313 0.147887,0.147888 -0.02162,-0.147887 0.126269,0 0.01488,0.01488 -0.01488,0.04825 0,0.06314 0.02976,0.02976 0.09651,-0.02976 0.126269,0 0.01488,0.01488 -0.01488,0.04825 0,0.06313 0.153169,0.153169 -0.0269,-0.153169 0.126269,0 0.01488,0.01488 -0.01488,0.04825 0,0.06314 0.0029,0.0029 0.285905,0 0.315672,0 0.231494,0 0.462987,0 0.69448,0 0.03302,0 0.235938,0.0083 0.252538,0 0.02662,-0.01331 0.03652,-0.04982 0.06313,-0.06314 0.03765,-0.01882 0.09651,0.02976 0.126269,0 0.01488,-0.01488 -0.01488,-0.04825 0,-0.06313 0.03157,-0.03157 0.157836,0.03157 0.189404,0 0.01488,-0.01488 -0.01488,-0.04825 0,-0.06314 0.03157,-0.03157 0.157836,0.03157 0.189403,0 0.01488,-0.01488 -0.01488,-0.04825 0,-0.06313 0.03157,-0.03157 0.157837,0.03157 0.189404,0 0.01488,-0.01488 -0.01488,-0.04825 0,-0.06314 0.03157,-0.03157 0.157836,0.03157 0.189403,0 0.01488,-0.01488 -0.01488,-0.04825 0,-0.06313 0.01488,-0.01488 0.04431,0.0094 0.06313,0 0.02662,-0.01331 0.03652,-0.04982 0.06314,-0.06313 0.01882,-0.0094 0.04825,0.01488 0.06313,0 0.01488,-0.01488 -0.01488,-0.04825 0,-0.06313 0.01488,-0.01488 0.04825,0.01488 0.06313,0 0.01488,-0.01488 -0.01488,-0.04825 0,-0.06313 0.01488,-0.01488 0.04825,0.01488 0.06313,0 0.01488,-0.01488 -0.01488,-0.04825 0,-0.06313 0.01488,-0.01488 0.04825,0.01488 0.06313,0 0.01488,-0.01488 -0.01488,-0.04825 0,-0.06313 0.01488,-0.01488 0.04825,0.01488 0.06313,0 0.01488,-0.01488 -0.01488,-0.04825 0,-0.06313 0.01488,-0.01488 0.04825,0.01488 0.06313,0 0.01488,-0.01488 -0.0094,-0.04431 0,-0.06313 0.01331,-0.02662 0.04982,-0.03652 0.06313,-0.06313 0.0094,-0.01882 -0.01488,-0.04825 0,-0.06314 0.01488,-0.01488 0.04825,0.01488 0.06313,0 0.02976,-0.02976 -0.02976,-0.09651 0,-0.126269 0.01488,-0.01488 0.04825,0.01488 0.06313,0 0.01488,-0.01488 -0.0094,-0.04431 0,-0.06314 0.01331,-0.02662 0.04983,-0.03651 0.06314,-0.06313 0.0094,-0.01882 -0.01488,-0.04825 0,-0.06314 0.01488,-0.01488 0.04825,0.01488 0.06313,0 0.01488,-0.01488 -0.0094,-0.04431 0,-0.06313 0.01331,-0.02662 0.04983,-0.03652 0.06314,-0.06313 0.0094,-0.01882 -0.01488,-0.04825 0,-0.06313 0.01488,-0.01488 0.04825,0.01488 0.06313,0 0.02976,-0.02976 -0.01882,-0.08862 0,-0.126269 0.01331,-0.02662 0.04983,-0.03651 0.06313,-0.06313 0.01882,-0.03765 -0.01882,-0.08862 0,-0.126269 0.01331,-0.02662 0.04983,-0.03652 0.06314,-0.06313 0.01882,-0.03765 -0.02976,-0.09651 0,-0.12627 0.01488,-0.01488 0.04825,0.01488 0.06313,0 0.03157,-0.03157 -0.03157,-0.157836 0,-0.189403 0.01488,-0.01488 0.04825,0.01488 0.06313,0 0.03157,-0.03157 -0.03157,-0.157836 0,-0.189404 0.01488,-0.01488 0.04825,0.01488 0.06313,0 0.01519,-0.01519 -0.01519,-0.237346 0,-0.252538 0.01488,-0.01488 0.04825,0.01488 0.06313,0 0.0025,-0.0025 0,-0.229353 0,-0.252538 0,-0.441942 0,-0.883883 0,-1.325825 0,-0.126269 0,-0.252538 0,-0.378807 0,-0.02843 0.0096,-0.17019 0,-0.189404 -0.01331,-0.02662 -0.04982,-0.03652 -0.06313,-0.06314 -0.0082,-0.01632 0,-0.334057 0,-0.378807 0,-0.02105 0,-0.04209 0,-0.06313 0,-0.02105 0.01488,-0.04825 0,-0.06313 -0.01488,-0.01488 -0.04825,0.01488 -0.06313,0 -0.01488,-0.01488 0,-0.04209 0,-0.06313 0,-0.02105 0,-0.04209 0,-0.06313 0,-0.04475 0.0082,-0.362484 0,-0.378807 -0.01331,-0.02662 -0.04982,-0.03652 -0.06313,-0.06314 -0.0094,-0.01882 0,-0.04209 0,-0.06313 0,-0.02105 0,-0.04209 0,-0.06314 0,-0.105224 0,-0.210448 0,-0.315672 0,-0.315673 0,-0.631346 0,-0.947018 0,-0.568211 0,-1.136422 0,-1.704633 0,-0.210448 0,-0.420897 0,-0.631345 0,-0.03301 0.0083,-0.235938 0,-0.252538 -0.01331,-0.02662 -0.04982,-0.03652 -0.06313,-0.06314 -0.01142,-0.02283 0,-0.27176 0,-0.315673 0,-0.231493 0,-0.462986 0,-0.694479 0,-0.357763 0,-0.715525 0,-1.073287 0,-0.147314 0,-0.294628 0,-0.441942 0,-0.02843 0.0096,-0.17019 0,-0.189404 -0.01331,-0.02662 -0.04983,-0.03651 -0.06314,-0.06313 -0.0094,-0.01882 0,-0.04209 0,-0.06314 0,-0.02104 0,-0.04209 0,-0.06313 0,-0.126269 0,-0.252539 0,-0.378808 0,-0.02104 0,-0.04209 0,-0.06313 0,-0.02105 0.0094,-0.04431 0,-0.06314 -0.01331,-0.02662 -0.04982,-0.03651 -0.06313,-0.06313 -0.0083,-0.0166 0,-0.219524 0,-0.252538 0,-0.168359 0,-0.336718 0,-0.505077 0,-0.03301 0.0083,-0.235937 0,-0.252538 -0.01331,-0.02662 -0.04982,-0.03651 -0.06313,-0.06313 -0.0096,-0.01921 0,-0.160971 0,-0.189404 0,-0.147314 0,-0.294628 0,-0.441942 0,-0.462986 0,-0.925973 0,-1.388959 0,-0.336718 0,-0.673435 0,-1.010153 0,-0.147314 0,-0.294628 0,-0.441942 0,-0.02843 -0.0096,-0.170189 0,-0.189403 0.01331,-0.02662 0.04982,-0.03652 0.06313,-0.06314 0.0083,-0.0166 0,-0.219524 0,-0.252538 0,-0.168359 0,-0.336717 0,-0.505076 0,-0.01531 -0.002,-0.187373 0,-0.189404 0.01488,-0.01488 0.04825,0.01488 0.06313,0 0.0025,-0.0025 0,-0.229353 0,-0.252538 0,-0.189404 0,-0.378807 0,-0.568211 0,-0.03301 -0.0083,-0.235937 0,-0.252538 0.01331,-0.02662 0.04983,-0.03651 0.06314,-0.06313 0.01141,-0.02283 0,-0.271761 0,-0.315673 0,-0.273583 0,-0.547166 0,-0.820749 0,-0.02843 -0.0096,-0.17019 0,-0.189404 0.01331,-0.02662 0.04982,-0.03651 0.06313,-0.06313 0.0096,-0.01921 0,-0.160971 0,-0.189404 0,-0.126269 0,-0.252538 0,-0.378807 0,-0.420897 0,-0.841794 0,-1.262691 0,-0.441941 0,-0.883883 0,-1.325825 0,-0.168359 0,-0.336717 0,-0.505076 0,-0.03301 -0.0083,-0.235938 0,-0.252538 0.01331,-0.02662 0.04983,-0.03651 0.06313,-0.06313 0.0096,-0.01921 0,-0.16097 0,-0.189403 0,-0.168359 0,-0.336718 0,-0.505077 0,-0.547166 0,-1.094332 0,-1.641498 0,-0.231493 0,-0.462986 0,-0.694479 0,-0.02105 0,-0.04209 0,-0.06314 0,-0.02104 0.01488,-0.04825 0,-0.06313 -0.01488,-0.01488 -0.04825,0.01488 -0.06313,0 -0.01488,-0.01488 0,-0.04209 0,-0.06313 0,-0.02104 0,-0.04209 0,-0.06313 0,-0.210448 0,-0.420896 0,-0.631345 0,-0.01531 0.002,-0.187373 0,-0.189404 -0.01488,-0.01488 -0.04825,0.01488 -0.06313,0 -0.01488,-0.01488 0,-0.04209 0,-0.06313 0,-0.168359 0,-0.336718 0,-0.505076 0,-0.02105 0,-0.04209 0,-0.06313 0,-0.02105 0.01488,-0.04825 0,-0.06313 -0.01488,-0.01488 -0.04825,0.01488 -0.06314,0 -0.01488,-0.01488 0,-0.04209 0,-0.06313 0,-0.02105 0,-0.04209 0,-0.06313 0,-0.168359 0,-0.336718 0,-0.505077"
       id="path4555"
       inkscape:connector-curvature="0" />
  </g>
  <g
     inkscape:groupmode="layer"
     id="layer2"
     inkscape:label="Calque 2"
     transform="translate(-17.685972,-8.2277302)">
    <path
       style="fill:#b3b3b3;fill-opacity:1;stroke:#000000;stroke-width:0;stroke-miterlimit:4;stroke-dasharray:none;stroke-opacity:1"
       d="M 37.375951,17.135619 35.990346,14.737441 23.432243,14.721661 10.87414,14.705881 10.8338,14.096658 C 10.81161,13.761586 10.79331,12.903842 10.79313,12.19056 l -3.23e-4,-1.296875 13.870025,0 13.870025,0 0.03436,0.390625 c 0.04734,0.538209 0.244967,7.917783 0.216957,8.101303 -0.01687,0.11055 -0.374465,-0.460797 -1.408221,-2.25 z"
       id="path4593"
       inkscape:connector-curvature="0"
       transform="translate(10.600735,3.27039)" />
    <path
       style="fill:none;fill-rule:evenodd;stroke:#000000;stroke-width:0.5;stroke-linecap:butt;stroke-linejoin:miter;stroke-miterlimit:4;stroke-dasharray:none;stroke-opacity:1"
       d="m 18.100735,8.4777302 28.035714,0 3.123283,5.4096838 -28.301854,0 z"
       id="path4504"
       inkscape:connector-curvature="0" />
    <path
       style="fill:none;fill-rule:evenodd;stroke:#000000;stroke-width:0.5;stroke-linecap:butt;stroke-linejoin:miter;stroke-miterlimit:4;stroke-dasharray:none;stroke-opacity:1"
       d="m 18.376115,18.257104 28.035714,0 3.123283,5.409684 -28.301854,0 z"
       id="path4504-6"
       inkscape:connector-curvature="0" />
    <path
       style="fill:none;fill-rule:evenodd;stroke:#000000;stroke-width:0.5;stroke-linecap:butt;stroke-linejoin:miter;stroke-miterlimit:4;stroke-dasharray:none;stroke-opacity:1"
       d="M 21.270471,23.577024 21.081068,13.854305"
       id="path4521"
       inkscape:connector-curvature="0" />
    <path
       style="fill:none;fill-rule:evenodd;stroke:#000000;stroke-width:0.5;stroke-linecap:butt;stroke-linejoin:miter;stroke-miterlimit:4;stroke-dasharray:none;stroke-opacity:1"
       d="M 18.26571,18.074821 18.005725,8.2885439"
       id="path4521-7"
       inkscape:connector-curvature="0" />
    <path
       style="fill:url(#radialGradient4548);fill-opacity:1;fill-rule:evenodd;stroke:#000000;stroke-width:0.5;stroke-linecap:butt;stroke-linejoin:miter;stroke-miterlimit:4;stroke-dasharray:none;stroke-opacity:1"
       d="M 49.730199,23.899605 49.440021,14.078177"
       id="path4538"
       inkscape:connector-curvature="0" />
    <path
       style="fill:#b3b3b3;fill-opacity:1;stroke:#000000;stroke-width:0;stroke-miterlimit:4;stroke-dasharray:none;stroke-opacity:1"
       d="m 21.482296,22.422098 c 0,-0.565232 -0.01888,-1.669138 -0.04196,-2.453125 l -0.04196,-1.42543 12.630267,0 12.630268,0 1.407925,2.413082 c 0.77436,1.327195 1.407927,2.431102 1.407927,2.453125 0,0.02202 -6.298306,0.04004 -13.996236,0.04004 l -13.996236,0 0,-1.027695 z"
       id="path4591"
       inkscape:connector-curvature="0" />
    <path
       style="fill:#808080;fill-opacity:1;stroke:#000000;stroke-width:0;stroke-miterlimit:0;stroke-dasharray:none;stroke-opacity:1"
       d="M 9.3465711,8.1338113 C 8.7046247,6.9177957 8.1245025,5.8209049 8.0574106,5.6962761 l -0.1219853,-0.2265978 13.7272947,0.00785 13.727294,0.00785 1.354977,2.34375 c 0.745237,1.2890624 1.375796,2.3824217 1.401241,2.4296867 l 0.04627,0.08594 -13.839375,0 -13.839376,0 -1.1671749,-2.2109373 z"
       id="path4603"
       inkscape:connector-curvature="0"
       transform="translate(10.600735,3.27039)" />
    <path
       style="fill:#999999;fill-opacity:1;stroke:#000000;stroke-width:0;stroke-miterlimit:0;stroke-dasharray:none;stroke-opacity:1"
       d="m 18.512261,17.974406 c -0.0052,-0.01075 -0.244775,-8.6548252 -0.239972,-8.6608605 0.002,-0.00264 0.479101,0.8870195 1.060019,1.9770005 0.580917,1.089982 1.15969,2.173744 1.286161,2.408362 l 0.229949,0.426576 0.03411,1.522253 c 0.01875,0.837239 0.03411,1.705028 0.03411,1.928421 l 0,0.406168 -1.200241,0 c -0.660134,0 -1.20199,-0.0035 -1.204124,-0.0079 z"
       id="path4605"
       inkscape:connector-curvature="0" />
    <path
       style="fill:#999999;fill-opacity:1;stroke:#000000;stroke-width:0;stroke-miterlimit:0;stroke-dasharray:none;stroke-opacity:1"
       d="m 19.739399,20.323146 -1.242307,-2.377847 1.20409,-0.0096 c 0.66225,-0.0054 1.207742,-0.0054 1.212206,0 0.01551,0.01851 0.09825,4.735143 0.08333,4.750217 -0.0083,0.0083 -0.574045,-1.054865 -1.257314,-2.36268 z"
       id="path4607"
       inkscape:connector-curvature="0" />
    <rect
       style="fill:#b3b3b3;fill-opacity:1;stroke:#000000;stroke-width:0;stroke-miterlimit:0;stroke-dasharray:none;stroke-opacity:1"
       id="rect4609"
       width="27.774773"
       height="4.6746058"
       x="21.400618"
       y="14.142485" />
    <rect
       style="fill:#b3b3b3;fill-opacity:1;stroke:#000000;stroke-width:0;stroke-miterlimit:0;stroke-dasharray:none;stroke-opacity:1"
       id="rect4612"
       width="3.09375"
       height="4.8011737"
       x="45.406086"
       y="18.63504"
       transform="matrix(1,0,0.04230727,0.99910465,0,0)" />
    <path
       style="fill:#4d4d4d;fill-rule:evenodd;stroke:#000000;stroke-width:0.5;stroke-linecap:butt;stroke-linejoin:miter;stroke-opacity:1;stroke-miterlimit:4;stroke-dasharray:none"
       d="m 33.560972,12.489815 c -0.311453,0 -0.03482,0.02946 -0.15625,-0.03125 -0.01239,-0.0062 -0.08736,0.0064 -0.09375,0 -0.0074,-0.0074 0.0074,-0.02388 0,-0.03125 -0.0075,-0.0075 -0.11748,0.0075 -0.125,0 -0.0074,-0.0074 0.0074,-0.02388 0,-0.03125 -0.0074,-0.0074 -0.02083,0 -0.03125,0 -0.01473,0 -0.154834,0.0014 -0.15625,0 -0.0074,-0.0074 0.0074,-0.02388 0,-0.03125 -0.01473,-0.01473 -0.04387,0.0093 -0.0625,0 -0.01318,-0.0066 -0.01807,-0.02466 -0.03125,-0.03125 -0.01863,-0.0093 -0.04777,0.01473 -0.0625,0 -0.0074,-0.0074 0.0074,-0.02388 0,-0.03125 -0.01563,-0.01563 -0.07813,0.01563 -0.09375,0 -0.0074,-0.0074 0.0074,-0.02388 0,-0.03125 -0.01473,-0.01473 -0.04387,0.0093 -0.0625,0 -0.01318,-0.0066 -0.01807,-0.02466 -0.03125,-0.03125 -0.0093,-0.0047 -0.02388,0.0074 -0.03125,0 -0.0074,-0.0074 0.0074,-0.02388 0,-0.03125 -0.01473,-0.01473 -0.04777,0.01473 -0.0625,0 -0.01473,-0.01473 0.01473,-0.04777 0,-0.0625 -0.02083,-0.02083 -0.04167,0.02083 -0.0625,0 -0.0074,-0.0074 0.0074,-0.02388 0,-0.03125 -0.0074,-0.0074 -0.02388,0.0074 -0.03125,0 -0.0074,-0.0074 0.0074,-0.02388 0,-0.03125 -0.0074,-0.0074 -0.02388,0.0074 -0.03125,0 -0.0074,-0.0074 0.0074,-0.02388 0,-0.03125 -0.0074,-0.0074 -0.02388,0.0074 -0.03125,0 -0.0074,-0.0074 0.0047,-0.02193 0,-0.03125 -0.0066,-0.01318 -0.02466,-0.01807 -0.03125,-0.03125 -0.0047,-0.0093 0.0074,-0.02388 0,-0.03125 -0.0074,-0.0074 -0.02388,0.0074 -0.03125,0 -0.0074,-0.0074 0.0047,-0.02193 0,-0.03125 -0.0066,-0.01318 -0.02466,-0.01807 -0.03125,-0.03125 -0.0093,-0.01863 0.01473,-0.04777 0,-0.0625 -0.0074,-0.0074 -0.02388,0.0074 -0.03125,0 -0.01473,-0.01473 0.01473,-0.04777 0,-0.0625 -0.0074,-0.0074 -0.02388,0.0074 -0.03125,0 -0.02083,-0.02083 0.02083,-0.04167 0,-0.0625 -0.0074,-0.0074 -0.02388,0.0074 -0.03125,0 -0.01563,-0.01563 0.01563,-0.07813 0,-0.09375 -0.0074,-0.0074 -0.02388,0.0074 -0.03125,0 -0.0074,-0.0074 0,-0.02083 0,-0.03125 0,-0.01473 0.0014,-0.154833 0,-0.15625 -0.0074,-0.0074 -0.02388,0.0074 -0.03125,0 -0.0074,-0.0074 0,-0.02083 0,-0.03125 0,-0.08333 0,-0.166666 0,-0.25 0,-0.0625 0,-0.125 0,-0.1875 0,-0.01042 -0.0074,-0.02388 0,-0.03125 0.0074,-0.0074 0.02388,0.0074 0.03125,0 0.01563,-0.01563 -0.01563,-0.07813 0,-0.09375 0.0074,-0.0074 0.02388,0.0074 0.03125,0 0.01563,-0.01563 -0.01563,-0.07813 0,-0.09375 0.08333,0 -0.01042,0.01042 0.03125,-0.03125 0.0074,-0.0074 0.02388,0.0074 0.03125,0 0.01473,-0.01473 -0.0093,-0.04387 0,-0.0625 0.0066,-0.01318 0.02466,-0.01807 0.03125,-0.03125 0.0047,-0.0093 -0.0074,-0.02388 0,-0.03125 0.0074,-0.0074 0.02388,0.0074 0.03125,0 0.01473,-0.01473 -0.01473,-0.04777 0,-0.0625 0.0074,-0.0074 0.02388,0.0074 0.03125,0 0.0074,-0.0074 0,-0.02083 0,-0.03125 0.01042,0 0.02388,0.0074 0.03125,0 0.06466,-0.06466 -0.09881,0.0025 0.03125,-0.0625 0.0093,-0.0047 0.02388,0.0074 0.03125,0 0.0074,-0.0074 -0.0047,-0.02193 0,-0.03125 0.0066,-0.01318 0.02466,-0.01807 0.03125,-0.03125 0.0047,-0.0093 -0.0074,-0.02388 0,-0.03125 0.0074,-0.0074 0.02388,0.0074 0.03125,0 0.0074,-0.0074 -0.0074,-0.02388 0,-0.03125 0.0074,-0.0074 0.02388,0.0074 0.03125,0 0.0074,-0.0074 -0.0074,-0.02388 0,-0.03125 0.0074,-0.0074 0.02388,0.0074 0.03125,0 0.0074,-0.0074 -0.0074,-0.02388 0,-0.03125 0.0074,-0.0074 0.02388,0.0074 0.03125,0 0.0074,-0.0074 -0.0074,-0.02388 0,-0.03125 0.0074,-0.0074 0.02388,0.0074 0.03125,0 0.0074,-0.0074 -0.0074,-0.02388 0,-0.03125 0.0074,-0.0074 0.02388,0.0074 0.03125,0 0.0074,-0.0074 -0.0074,-0.02388 0,-0.03125 0.06466,-0.06466 -0.0025,0.09881 0.0625,-0.03125 0.0047,-0.0093 -0.0074,-0.02388 0,-0.03125 0.0074,-0.0074 0.02193,0.0047 0.03125,0 0.01318,-0.0066 0.01807,-0.02466 0.03125,-0.03125 0.0093,-0.0047 0.02388,0.0074 0.03125,0 0.0074,-0.0074 -0.0074,-0.02388 0,-0.03125 0.01473,-0.01473 0.04777,0.01473 0.0625,0 0.0074,-0.0074 -0.0074,-0.023884 0,-0.03125 0.01473,-0.014731 0.04387,0.00932 0.0625,0 0.01318,-0.00659 0.01807,-0.024662 0.03125,-0.03125 0.01239,-0.0062 0.08736,0.00639 0.09375,0 0.0074,-0.00737 -0.0074,-0.023884 0,-0.03125 0.01473,-0.014731 0.04777,0.014731 0.0625,0 0.0074,-0.00737 -0.0074,-0.023884 0,-0.03125 0.01563,-0.015625 0.07813,0.015625 0.09375,0 0.0074,-0.00737 -0.0074,-0.023884 0,-0.03125 0.01563,-0.015625 0.07813,0.015625 0.09375,0 0.0074,-0.00737 -0.0074,-0.023884 0,-0.03125 0.0074,-0.00737 0.02083,0 0.03125,0 0.01042,0 0.02083,0 0.03125,0 0.0625,0 0.125,0 0.1875,0 0.01042,0 0.02083,0 0.03125,0 0.01042,0 0.02193,-0.00466 0.03125,0 0.01318,0.00659 0.01807,0.024662 0.03125,0.03125 0.01239,0.0062 0.08736,-0.00639 0.09375,0 0.0074,0.00737 -0.0074,0.023884 0,0.03125 0.01563,0.015625 0.07813,-0.015625 0.09375,0 0.0074,0.00737 -0.0074,0.023884 0,0.03125 0.01563,0.015625 0.07813,-0.015625 0.09375,0 0.0074,0.00737 -0.0074,0.023884 0,0.03125 0.01473,0.014731 0.04387,-0.00932 0.0625,0 0.01318,0.00659 0.01807,0.024662 0.03125,0.03125 0.01863,0.00932 0.04777,-0.014731 0.0625,0 0.0074,0.00737 -0.0074,0.023884 0,0.03125 0.01473,0.01473 0.04387,-0.0093 0.0625,0 0.01318,0.0066 0.01807,0.02466 0.03125,0.03125 0.01863,0.0093 0.04387,-0.0093 0.0625,0 0.01318,0.0066 0.01807,0.02466 0.03125,0.03125 0.01863,0.0093 0.04387,-0.0093 0.0625,0 0.01318,0.0066 0.01807,0.02466 0.03125,0.03125 0.01863,0.0093 0.04387,-0.0093 0.0625,0 0.01318,0.0066 0.01807,0.02466 0.03125,0.03125 0.0093,0.0047 0.02388,-0.0074 0.03125,0 0.0074,0.0074 -0.0074,0.02388 0,0.03125 0.01473,0.01473 0.04387,-0.0093 0.0625,0 0.01318,0.0066 0.01807,0.02466 0.03125,0.03125 0.0093,0.0047 0.02388,-0.0074 0.03125,0 0.0074,0.0074 -0.0074,0.02388 0,0.03125 0.01473,0.01473 0.04777,-0.01473 0.0625,0 0.0074,0.0074 -0.0074,0.02388 0,0.03125 0.01473,0.01473 0.04777,-0.01473 0.0625,0 0.0074,0.0074 -0.0074,0.02388 0,0.03125 0.0074,0.0074 0.02193,-0.0047 0.03125,0 0.01318,0.0066 0.01807,0.02466 0.03125,0.03125 0.0093,0.0047 0.02388,-0.0074 0.03125,0 0.0074,0.0074 -0.0074,0.02388 0,0.03125 0.0074,0.0074 0.02193,-0.0047 0.03125,0 0.01318,0.0066 0.02083,0.02083 0.03125,0.03125 0.01042,0.01042 0.02466,0.01807 0.03125,0.03125 0.0047,0.0093 -0.0074,0.02388 0,0.03125 0.0074,0.0074 0.02388,-0.0074 0.03125,0 0.0074,0.0074 -0.0074,0.02388 0,0.03125 0.0074,0.0074 0.02388,-0.0074 0.03125,0 0.01473,0.01473 -0.01473,0.04777 0,0.0625 0.01473,0.01473 0.04777,-0.01473 0.0625,0 0.0074,0.0074 -0.0047,0.02193 0,0.03125 0.0066,0.01318 0.02466,0.01807 0.03125,0.03125 0.0047,0.0093 -0.0074,0.02388 0,0.03125 0.0074,0.0074 0.02388,-0.0074 0.03125,0 0.0074,0.0074 -0.0047,0.02193 0,0.03125 0.0066,0.01318 0.02466,0.01807 0.03125,0.03125 0.0047,0.0093 -0.0074,0.02388 0,0.03125 0.0074,0.0074 0.02388,-0.0074 0.03125,0 0.0074,0.0074 -0.0047,0.02193 0,0.03125 0.0066,0.01318 0.02466,0.01807 0.03125,0.03125 0.0047,0.0093 -0.0074,0.02388 0,0.03125 0.0074,0.0074 0.02388,-0.0074 0.03125,0 0.01473,0.01473 -0.01473,0.04777 0,0.0625 0.0074,0.0074 0.02388,-0.0074 0.03125,0 0.0074,0.0074 -0.0074,0.02388 0,0.03125 0.0074,0.0074 0.02388,-0.0074 0.03125,0 0.01473,0.01473 -0.01473,0.04777 0,0.0625 0.0074,0.0074 0.02388,-0.0074 0.03125,0 0.01473,0.01473 -0.01473,0.04777 0,0.0625 0.0074,0.0074 0.02388,-0.0074 0.03125,0 0.01473,0.01473 -0.01473,0.04777 0,0.0625 0.0074,0.0074 0.02388,-0.0074 0.03125,0 0.0074,0.0074 -0.0047,0.02193 0,0.03125 0.03862,0.07723 0.03125,-0.01079 0.03125,0.0625 0,0.08333 -0.01042,-0.01042 0.03125,0.03125 0.01563,0.01563 -0.01563,0.07813 0,0.09375 0.0074,0.0074 0.02388,-0.0074 0.03125,0 0.02081,0.02082 -0.02081,0.04168 0,0.0625 0.0074,0.0074 0.02388,-0.0074 0.03125,0 10e-4,0.001 0,0.08617 0,0.09375 0,0.01042 0,0.02083 0,0.03125 0,0.01042 -0.0074,0.02388 0,0.03125 0.0074,0.0074 0.02388,-0.0074 0.03125,0 0.0074,0.0074 0,0.02083 0,0.03125 0,0.02215 -0.004,0.17942 0,0.1875 0.0066,0.01318 0.02466,0.01807 0.03125,0.03125 0.0021,0.0043 0.0021,0.183232 0,0.1875 -0.0066,0.01318 -0.02466,0.01807 -0.03125,0.03125 -0.0085,0.01695 0.0086,0.11645 0,0.125 -0.0074,0.0074 -0.02388,-0.0074 -0.03125,0 -0.01563,0.01563 0.01563,0.07813 0,0.09375 -0.0074,0.0074 -0.02388,-0.0074 -0.03125,0 -0.01473,0.01473 0.01473,0.04777 0,0.0625 -0.0074,0.0074 -0.02388,-0.0074 -0.03125,0 -0.0074,0.0074 0.0047,0.02193 0,0.03125 -0.0066,0.01318 -0.02466,0.01807 -0.03125,0.03125 -0.0047,0.0093 0.0074,0.02388 0,0.03125 -0.0074,0.0074 -0.02388,-0.0074 -0.03125,0 -0.01473,0.01473 0.01473,0.04777 0,0.0625 -0.0074,0.0074 -0.02388,-0.0074 -0.03125,0 -0.0074,0.0074 0,0.02083 0,0.03125 -0.01042,0 -0.02388,-0.0074 -0.03125,0 -0.0074,0.0074 0.0074,0.02388 0,0.03125 -0.0074,0.0074 -0.02388,-0.0074 -0.03125,0 -0.0074,0.0074 0.0074,0.02388 0,0.03125 -0.0074,0.0074 -0.02193,-0.0047 -0.03125,0 -0.01318,0.0066 -0.01807,0.02466 -0.03125,0.03125 -0.0093,0.0047 -0.02388,-0.0074 -0.03125,0 -0.0074,0.0074 0.0074,0.02388 0,0.03125 -0.0074,0.0074 -0.02193,-0.0047 -0.03125,0 -0.01318,0.0066 -0.01807,0.02466 -0.03125,0.03125 -0.0093,0.0047 -0.02388,-0.0074 -0.03125,0 -0.0074,0.0074 0.0074,0.02388 0,0.03125 -0.01473,0.01473 -0.04777,-0.01473 -0.0625,0 -0.0074,0.0074 0.0074,0.02388 0,0.03125 -0.01473,0.01473 -0.04777,-0.01473 -0.0625,0 -0.0074,0.0074 0.0074,0.02388 0,0.03125 -0.01473,0.01473 -0.04777,-0.01473 -0.0625,0 -0.0074,0.0074 0.0074,0.02388 0,0.03125 -0.01097,0.01097 -0.134665,-0.01079 -0.15625,0 -0.01318,0.0066 -0.01807,0.02466 -0.03125,0.03125 -0.0113,0.0056 -0.134514,0 -0.15625,0 -0.02174,0 -0.144949,0.0056 -0.15625,0 -0.01318,-0.0066 -0.01807,-0.02466 -0.03125,-0.03125 -0.01695,-0.0085 -0.116449,0.0085 -0.125,0 -0.0074,-0.0074 0.0074,-0.02388 0,-0.03125 -0.01563,-0.01563 -0.07813,0.01563 -0.09375,0 -0.0074,-0.0074 0.0074,-0.02388 0,-0.03125 -0.01473,-0.01473 -0.04387,0.0093 -0.0625,0 -0.01318,-0.0066 -0.01807,-0.02466 -0.03125,-0.03125 -0.01863,-0.0093 -0.04777,0.01473 -0.0625,0 -0.0074,-0.0074 0.0074,-0.02388 0,-0.03125 -0.01473,-0.01473 -0.04387,0.0093 -0.0625,0 -0.01318,-0.0066 -0.01807,-0.02466 -0.03125,-0.03125 -0.01863,-0.0093 -0.04777,0.01473 -0.0625,0 -0.0074,-0.0074 0.0074,-0.02388 0,-0.03125 -0.01563,-0.01563 -0.07813,0.01563 -0.09375,0 -0.0074,-0.0074 0.0074,-0.02388 0,-0.03125 -0.01563,-0.01563 -0.07813,0.01563 -0.09375,0 -0.0074,-0.0074 0.0074,-0.02388 0,-0.03125 -0.0074,-0.0074 -0.02104,0.002 -0.03125,0 -0.04212,-0.0084 -0.08333,-0.02083 -0.125,-0.03125 z"
       id="path4616"
       inkscape:connector-curvature="0" />
  </g>
  <g
     inkscape:label="Calque 1"
     inkscape:groupmode="layer"
     id="layer1"
     transform="translate(-223.26217,-584.81825)" />
</svg>
