<?xml version="1.0" encoding="UTF-8" standalone="no"?>
<!-- Created with Inkscape (http://www.inkscape.org/) -->

<svg
   xmlns:osb="http://www.openswatchbook.org/uri/2009/osb"
   xmlns:dc="http://purl.org/dc/elements/1.1/"
   xmlns:cc="http://creativecommons.org/ns#"
   xmlns:rdf="http://www.w3.org/1999/02/22-rdf-syntax-ns#"
   xmlns:svg="http://www.w3.org/2000/svg"
   xmlns="http://www.w3.org/2000/svg"
   xmlns:sodipodi="http://sodipodi.sourceforge.net/DTD/sodipodi-0.dtd"
   xmlns:inkscape="http://www.inkscape.org/namespaces/inkscape"
   width="9.1141167mm"
   height="13.259035mm"
   viewBox="0 0 32.294114 46.980834"
   id="svg2"
   version="1.1"
   inkscape:version="0.91 r13725"
   sodipodi:docname="weapon-slingshot.svg">
  <defs
     id="defs4">
    <linearGradient
       id="linearGradient4411"
       osb:paint="solid">
      <stop
         style="stop-color:#8e9999;stop-opacity:1;"
         offset="0"
         id="stop4413" />
    </linearGradient>
    <inkscape:perspective
       sodipodi:type="inkscape:persp3d"
       inkscape:vp_x="1.25 : 28.310012 : 1"
       inkscape:vp_y="0 : 1000 : 0"
       inkscape:vp_z="49.47717 : 24.738584 : 1"
       inkscape:persp3d-origin="24.738585 : 16.492389 : 1"
       id="perspective3559" />
  </defs>
  <sodipodi:namedview
     id="base"
     pagecolor="#ffffff"
     bordercolor="#666666"
     borderopacity="1.0"
     inkscape:pageopacity="0.0"
     inkscape:pageshadow="2"
     inkscape:zoom="11.313709"
     inkscape:cx="39.902384"
     inkscape:cy="26.946622"
     inkscape:document-units="px"
     inkscape:current-layer="layer4"
     showgrid="false"
     fit-margin-top="0"
     fit-margin-left="0"
     fit-margin-right="0"
     fit-margin-bottom="0"
     inkscape:window-width="1920"
     inkscape:window-height="1027"
     inkscape:window-x="0"
     inkscape:window-y="0"
     inkscape:window-maximized="1" />
  <metadata
     id="metadata7">
    <rdf:RDF>
      <cc:Work
         rdf:about="">
        <dc:format>image/svg+xml</dc:format>
        <dc:type
           rdf:resource="http://purl.org/dc/dcmitype/StillImage" />
        <dc:title></dc:title>
      </cc:Work>
    </rdf:RDF>
  </metadata>
  <g
     inkscape:groupmode="layer"
     id="layer3"
     inkscape:label="Calque 3"
     transform="translate(-7.0852377,-4.9573402)" />
  <g
     inkscape:groupmode="layer"
     id="layer2"
     inkscape:label="Calque 2"
     transform="translate(-17.685972,-8.2277302)">
    <path
       style="fill:#9b7004;fill-opacity:1;fill-rule:evenodd;stroke:#000000;stroke-width:1.0366894px;stroke-linecap:butt;stroke-linejoin:miter;stroke-opacity:1"
       d="m 19.881903,15.675189 c -0.404444,-0.439115 -0.388759,-0.384871 -0.388759,-0.777517 0,-0.0432 0.03054,-0.09905 0,-0.129586 -0.03054,-0.03054 -0.09905,0.03054 -0.129586,0 -0.0041,-0.0041 0,-0.35733 0,-0.388759 0,-0.03143 0.0041,-0.384591 0,-0.388758 -0.03054,-0.03054 -0.09905,0.03054 -0.129586,0 -0.0041,-0.0041 0,-0.35733 0,-0.388759 0,-0.0611 0.0059,-0.642058 0,-0.647931 -0.03054,-0.03054 -0.09905,0.03054 -0.129586,0 -0.06109,-0.06109 0.06109,-0.198084 0,-0.259172 -0.03054,-0.03054 -0.09905,0.03054 -0.129586,0 -0.06109,-0.06109 0.06109,-0.198084 0,-0.259172 -0.03054,-0.03054 -0.09905,0.03054 -0.129587,0 -0.06479,-0.06479 0.06479,-0.323966 0,-0.388759 -0.03054,-0.03054 -0.09905,0.03054 -0.129586,0 -0.03054,-0.03054 0.01931,-0.09095 0,-0.129586 -0.02732,-0.05463 -0.102269,-0.07495 -0.129586,-0.129586 -0.01703,-0.03408 0,-0.450582 0,-0.518345 0,-0.06776 -0.01703,-0.484271 0,-0.518345 0.02732,-0.05463 0.102269,-0.07495 0.129586,-0.129586 0.03864,-0.07728 -0.06109,-0.198084 0,-0.259172 0.03054,-0.03054 0.09905,0.03054 0.129586,0 0.06479,-0.06479 -0.06479,-0.323966 0,-0.3887588 0.03054,-0.030541 0.09905,0.030541 0.129587,0 0.06109,-0.061092 -0.06109,-0.1980844 0,-0.2591724 0.03054,-0.030541 0.09905,0.030541 0.129586,0 0.03054,-0.030541 -0.03054,-0.099045 0,-0.1295862 0.03054,-0.030541 0.09905,0.030541 0.129586,0 0.03054,-0.030541 -0.03054,-0.099045 0,-0.1295861 0.03054,-0.030541 0.09905,0.030541 0.129586,0 0.03054,-0.030541 -0.03054,-0.099045 0,-0.1295862 0.03054,-0.030541 0.09095,0.019313 0.129586,0 0.05463,-0.027317 0.07495,-0.1022694 0.129587,-0.1295862 0.03864,-0.019314 0.09905,0.030541 0.129586,0 0.03054,-0.030541 -0.03054,-0.099045 0,-0.1295862 0.03054,-0.030541 0.09095,0.019314 0.129586,0 0.05463,-0.027317 0.07495,-0.1022694 0.129586,-0.1295862 0.07728,-0.038637 0.198084,0.061092 0.259172,0 0.03054,-0.030541 -0.03054,-0.099045 0,-0.1295862 0.06479,-0.064793 0.323966,0.064793 0.388759,0 0.03054,-0.030541 -0.03054,-0.099045 0,-0.1295861 0.03054,-0.030541 0.08639,0 0.129586,0 0.259173,0 0.518345,0 0.777517,0 0.345563,0 0.691127,0 1.03669,0 0.0432,0 0.08639,0 0.129586,0 0.0432,0 0.09905,0.030541 0.129586,0 0.03054,-0.030541 -0.03054,-0.099045 0,-0.1295862 0.03054,-0.030541 0.08639,0 0.129586,0 0.0432,0 0.08639,0 0.129586,0 0.345563,0 0.691127,0 1.03669,0 0.0432,0 0.08639,0 0.129586,0 0.0432,0 0.09905,-0.030541 0.129586,0 0.172782,0.1727819 -0.215976,0.1295862 0.129586,0.1295862 0.345563,0 -0.0432,-0.043199 0.129587,0.1295861 0.03054,0.030541 0.09905,-0.030541 0.129586,0 0.03054,0.030541 -0.03054,0.099045 0,0.1295862 0.03054,0.030541 0.09905,-0.030541 0.129586,0 0.03054,0.030541 -0.03054,0.099045 0,0.1295862 0.03054,0.030541 0.09905,-0.030541 0.129586,0 0.03054,0.030541 -0.03054,0.099045 0,0.1295862 0.03054,0.030541 0.09905,-0.030541 0.129586,0 0.03054,0.030541 -0.03054,0.099045 0,0.1295862 0.03054,0.030541 0.09905,-0.030541 0.129587,0 0.03054,0.030541 -0.01931,0.090949 0,0.1295862 0.02732,0.054633 0.102269,0.074953 0.129586,0.1295861 0.01931,0.038638 -0.03054,0.099045 0,0.1295862 0.03054,0.030541 0.09905,-0.030541 0.129586,0 0.03054,0.030541 -0.03054,0.099045 0,0.1295862 0.03054,0.030541 0.09905,-0.030541 0.129586,0 0.03054,0.030541 -0.03054,0.099045 0,0.1295862 0.03054,0.030541 0.09905,-0.030541 0.129586,0 0.06109,0.061092 -0.06109,0.1980858 0,0.2591728 0.03054,0.03054 0.09905,-0.03054 0.129586,0 0.03054,0.03054 -0.03054,0.09904 0,0.129586 0.03054,0.03054 0.09905,-0.03054 0.129587,0 0.06109,0.06109 -0.06109,0.198085 0,0.259172 0.03054,0.03054 0.08639,0 0.129586,0 0,0.0432 -0.03054,0.09905 0,0.129586 0.03054,0.03054 0.09905,-0.03054 0.129586,0 0.03054,0.03054 -0.03054,0.09905 0,0.129586 0.03054,0.03054 0.09905,-0.03054 0.129586,0 0.06109,0.06109 -0.03864,0.181903 0,0.259173 0.02732,0.05463 0.10227,0.07495 0.129586,0.129586 0.01931,0.03864 -0.03054,0.09905 0,0.129586 0.03054,0.03054 0.09905,-0.03054 0.129586,0 0.06109,0.06109 -0.06109,0.198086 0,0.259173 0.03054,0.03054 0.08639,0 0.129587,0 0,0.0432 -0.03054,0.09905 0,0.129586 0.03054,0.03054 0.09905,-0.03054 0.129586,0 0,0.345564 -0.0432,-0.0432 0.129586,0.129586 0.06109,0.06109 -0.06109,0.198085 0,0.259172 0.03054,0.03054 0.09905,-0.03054 0.129586,0 0.06109,0.06109 -0.06109,0.198086 0,0.259173 0.03054,0.03054 0.09905,-0.03054 0.129586,0 0.03054,0.03054 -0.01931,0.09095 0,0.129586 0.02732,0.05463 0.10227,0.07495 0.129587,0.129586 0.01931,0.03864 -0.01931,0.09095 0,0.129586 0.02732,0.05463 0.102269,0.07495 0.129586,0.129586 0.03864,0.07728 -0.06109,0.198086 0,0.259173 0.03054,0.03054 0.09905,-0.03054 0.129586,0 0.06109,0.06109 -0.06109,0.198085 0,0.259172 0.03054,0.03054 0.09905,-0.03054 0.129586,0 0,0.345564 -0.0432,-0.0432 0.129586,0.129586 0.06109,0.06109 -0.06109,0.198086 0,0.259173 0.03054,0.03054 0.09905,-0.03054 0.129586,0 0.06109,0.06109 -0.06109,0.198085 0,0.259172 0.03054,0.03054 0.09905,-0.03054 0.129587,0 0.03054,0.03054 0,0.08639 0,0.129586 0.0432,0 0.09905,-0.03054 0.129586,0 0.06109,0.06109 -0.06109,0.198086 0,0.259173 0.03054,0.03054 0.09905,-0.03054 0.129586,0 0.03054,0.03054 -0.03054,0.09904 0,0.129586 0.03054,0.03054 0.09905,-0.03054 0.129586,0 0.06109,0.06108 -0.03864,0.181902 0,0.259172 0.02732,0.05463 0.10227,0.07495 0.129586,0.129586 0.01931,0.03864 -0.03054,0.09905 0,0.129586 0.03054,0.03054 0.09905,-0.03054 0.129587,0 0,0.345564 -0.0432,-0.0432 0.129586,0.129587 0.03054,0.03054 -0.03054,0.09905 0,0.129586 0.06109,0.06108 0.198084,-0.06109 0.259172,0 0.03054,0.03054 -0.03054,0.09905 0,0.129586 0.06479,0.06479 0.323966,-0.06479 0.388759,0 0.03054,0.03054 -0.03054,0.09905 0,0.129586 0.06109,0.06108 0.198084,-0.06109 0.259172,0 0.03054,0.03054 -0.03054,0.09905 0,0.129586 0.06109,0.06108 0.198084,-0.06109 0.259172,0 0.03054,0.03054 -0.03054,0.09905 0,0.129587 0.06109,0.06108 0.181902,-0.03864 0.259173,0 0.05463,0.02732 0.07495,0.102269 0.129586,0.129586 0.03864,0.01931 0.09095,-0.01931 0.129586,0 0.05463,0.02732 0.07495,0.102269 0.129586,0.129586 0.07728,0.03864 0.181902,-0.03864 0.259173,0 0.05463,0.02732 0.07495,0.102269 0.129586,0.129586 0.05138,0.02569 0.362266,-0.0265 0.388758,0 0.03054,0.03054 -0.03054,0.09905 0,0.129586 0.06109,0.06108 0.181902,-0.03864 0.259173,0 0.05463,0.02732 0.07495,0.10227 0.129586,0.129586 0.07728,0.03864 0.181902,-0.03864 0.259172,0 0.05463,0.02732 0.07495,0.10227 0.129586,0.129587 0.05138,0.02569 0.362266,-0.0265 0.388759,0 0.03054,0.03054 -0.03054,0.09905 0,0.129586 0.04013,0.04013 0.607805,-0.04013 0.647931,0 0.03054,0.03054 -0.03054,0.09905 0,0.129586 0.04549,0.04549 0.558421,-0.04475 0.647931,0 0.32026,0.16013 -0.04473,0.129586 0.259172,0.129586 0.0611,0 0.642058,-0.0059 0.647931,0 0.03054,0.03054 -0.03054,0.09905 0,0.129586 0.03054,0.03054 0.08639,0 0.129586,0 0.215977,0 0.431955,0 0.647931,0 0.0432,0 0.09905,-0.03054 0.129586,0 0.03054,0.03054 -0.03054,0.09905 0,0.129587 0.03054,0.03054 0.08639,0 0.129587,0 0.345562,0 0.691126,0 1.036689,0 0.0432,0 0.08639,0 0.129586,0 0.0432,0 0.09904,0.03054 0.129586,0 0.03054,-0.03054 -0.03054,-0.09905 0,-0.129587 0.03054,-0.03054 0.08639,0 0.129587,0 0.302368,0 0.604735,0 0.907103,0 0.0432,0 0.08639,0 0.129586,0 0.0432,0 0.09904,0.03054 0.129586,0 0.03054,-0.03054 -0.03054,-0.09905 0,-0.129586 0.06109,-0.06109 0.198085,0.06109 0.259173,0 0.03054,-0.03054 -0.03054,-0.09905 0,-0.129586 0.03054,-0.03054 0.09095,0.01931 0.129586,0 0.05463,-0.02732 0.07495,-0.102269 0.129586,-0.129586 0.03864,-0.01931 0.09904,0.03054 0.129586,0 0.03054,-0.03054 -0.03054,-0.09905 0,-0.129586 0.06109,-0.06109 0.198084,0.06108 0.259172,0 0.03054,-0.03054 -0.03054,-0.09905 0,-0.129587 0.03054,-0.03054 0.09905,0.03054 0.129587,0 0.03054,-0.03054 -0.03054,-0.09905 0,-0.129586 0.03054,-0.03054 0.09905,0.03054 0.129586,0 0.03054,-0.03054 -0.03054,-0.09905 0,-0.129586 0.03054,-0.03054 0.09904,0.03054 0.129586,0 0.03054,-0.03054 -0.03054,-0.09905 0,-0.129586 0.03054,-0.03054 0.08639,0 0.129586,0 0,-0.0432 -0.03054,-0.09905 0,-0.129586 0.03054,-0.03054 0.09904,0.03054 0.129586,0 0.03054,-0.03054 -0.03054,-0.09905 0,-0.129586 0.03054,-0.03054 0.09905,0.03054 0.129587,0 0.06109,-0.06109 -0.06109,-0.198085 0,-0.259173 0.03054,-0.03054 0.09905,0.03054 0.129586,0 0.03054,-0.03054 -0.03054,-0.09905 0,-0.129586 0.03054,-0.03054 0.09904,0.03054 0.129586,0 0.03054,-0.03054 -0.03054,-0.09905 0,-0.129586 0.03054,-0.03054 0.09905,0.03054 0.129586,0 0.03054,-0.03054 -0.03054,-0.09905 0,-0.129586 0.03054,-0.03054 0.09904,0.03054 0.129586,0 0.06109,-0.06109 -0.06109,-0.198085 0,-0.259173 0.03054,-0.03054 0.09905,0.03054 0.129586,0 0.03054,-0.03054 -0.03054,-0.09905 0,-0.129586 0.03054,-0.03054 0.09905,0.03054 0.129587,0 0.06109,-0.06109 -0.06109,-0.198084 0,-0.259172 0.03054,-0.03054 0.09904,0.03054 0.129586,0 0.06109,-0.06109 -0.06109,-0.198085 0,-0.259173 0.03054,-0.03054 0.09905,0.03054 0.129586,0 0.06109,-0.06109 -0.03864,-0.181901 0,-0.259172 0.02732,-0.05463 0.102269,-0.07495 0.129586,-0.129586 0.03864,-0.07728 -0.06109,-0.198085 0,-0.259173 0.03054,-0.03054 0.09904,0.03054 0.129586,0 0.06109,-0.06109 -0.06109,-0.198084 0,-0.259172 0.03054,-0.03054 0.09905,0.03054 0.129587,0 0.06109,-0.06109 -0.06109,-0.198084 0,-0.259172 0.03054,-0.03054 0.09904,0.03054 0.129586,0 0.06109,-0.06109 -0.06109,-0.198085 0,-0.259173 0.03054,-0.03054 0.09905,0.03054 0.129586,0 0.03054,-0.03054 -0.01931,-0.09095 0,-0.129586 0.02732,-0.05463 0.102269,-0.07495 0.129586,-0.129586 0.01931,-0.03864 -0.03054,-0.09904 0,-0.129586 0.03054,-0.03054 0.09904,0.03054 0.129586,0 0.06109,-0.06109 -0.06109,-0.198085 0,-0.259173 0.03054,-0.03054 0.09905,0.03054 0.129586,0 0.06109,-0.06109 -0.06109,-0.198084 0,-0.259172 0.03054,-0.03054 0.09905,0.03054 0.129587,0 0.06108,-0.06109 -0.06109,-0.198084 0,-0.259172 0.03054,-0.03054 0.09904,0.03054 0.129586,0 0.03054,-0.03054 -0.03054,-0.09905 0,-0.129586 0.03054,-0.03054 0.09905,0.03054 0.129586,0 0.03054,-0.03054 -0.03054,-0.09905 0,-0.129587 0.03054,-0.03054 0.09904,0.03054 0.129586,0 0.03054,-0.03054 -0.03054,-0.09905 0,-0.129586 0.03054,-0.03054 0.09905,0.03054 0.129586,0 0,-0.345563 -0.0432,0.0432 0.129587,-0.129586 0.03054,-0.03054 -0.03054,-0.09905 0,-0.129586 0.03054,-0.03054 0.09904,0.03054 0.129586,0 0.03054,-0.03054 -0.03054,-0.09905 0,-0.129586 0.06108,-0.06109 0.198084,0.06109 0.259172,0 0.03054,-0.03054 -0.03054,-0.09905 0,-0.129587 0.03054,-0.03054 0.09905,0.03054 0.129586,0 0.03054,-0.03054 -0.03054,-0.09905 0,-0.129586 0.06108,-0.06109 0.198085,0.06109 0.259173,0 0.03054,-0.03054 -0.03054,-0.09905 0,-0.129586 0.03054,-0.03054 0.09905,0.03054 0.129586,0 0.03054,-0.03054 -0.03054,-0.09905 0,-0.129586 0.06108,-0.06109 0.198084,0.06109 0.259172,0 0.03054,-0.03054 -0.03054,-0.09905 0,-0.129586 0.03054,-0.03054 0.09904,0.03054 0.129586,0 0.03054,-0.03054 -0.03054,-0.09905 0,-0.129586 0.06108,-0.06109 0.198085,0.06109 0.259173,0 0.03054,-0.03054 -0.03054,-0.09905 0,-0.129587 0.03054,-0.03054 0.09095,0.01931 0.129586,0 0.05463,-0.02732 0.07495,-0.102269 0.129586,-0.1295858 0.03864,-0.019314 0.09904,0.030541 0.129586,0 0.03054,-0.030541 -0.03054,-0.099045 0,-0.1295862 0.06108,-0.061092 0.198085,0.061092 0.259173,0 0.03054,-0.030541 -0.03054,-0.099045 0,-0.1295862 0.06479,-0.064793 0.323965,0.064793 0.388758,0 0.03054,-0.030541 -0.03054,-0.099045 0,-0.1295862 0.06108,-0.061092 0.198085,0.061092 0.259173,0 0.03054,-0.030541 -0.03054,-0.099045 0,-0.1295861 0.03118,-0.031184 0.487162,0.031184 0.518344,0 0.03054,-0.030541 -0.03054,-0.099045 0,-0.1295862 0.03054,-0.030541 0.09905,0.030541 0.129586,0 0.03054,-0.030541 -0.03054,-0.099045 0,-0.1295862 0.03054,-0.030541 0.08639,0 0.129587,0 0.0432,0 0.08639,0 0.129586,0 0.08639,0 0.172782,0 0.259172,0 0.0432,0 0.172782,0 0.129586,0 -0.08639,0 -0.259172,-0.086387 -0.259172,0 0,0.3568368 0.295767,0.036595 0.388758,0.1295862 0.03054,0.030541 -0.03054,0.099045 0,0.1295862 0.03054,0.030541 0.09905,-0.030541 0.129587,0 0.06108,0.061092 -0.06109,0.1980854 0,0.2591723 0.03054,0.030541 0.09904,-0.030541 0.129586,0 0.06108,0.061092 -0.03864,0.1819027 0,0.2591724 0.02732,0.054634 0.102269,0.074953 0.129586,0.1295858 0.03864,0.07728 -0.06109,0.198086 0,0.259173 0.03054,0.03054 0.09904,-0.03054 0.129586,0 0.06108,0.06109 -0.06109,0.198085 0,0.259172 0.03054,0.03054 0.09905,-0.03054 0.129586,0 0.06108,0.06109 -0.06109,0.198086 0,0.259172 0.03054,0.03054 0.09905,-0.03054 0.129587,0 0.06108,0.06109 -0.06109,0.198086 0,0.259173 0.03054,0.03054 0.09904,-0.03054 0.129586,0 0.03054,0.03054 -0.01931,0.09095 0,0.129586 0.02732,0.05463 0.102269,0.07495 0.129586,0.129586 0.01931,0.03864 -0.03054,0.09905 0,0.129586 0.03054,0.03054 0.09904,-0.03054 0.129586,0 0.06108,0.06109 -0.06109,0.198086 0,0.259173 0.03054,0.03054 0.09905,-0.03054 0.129586,0 0.06108,0.06109 -0.06109,0.198085 0,0.259172 0.03054,0.03054 0.09905,-0.03054 0.129586,0 0.06108,0.06109 -0.06109,0.198086 0,0.259172 0.03054,0.03054 0.09905,-0.03054 0.129587,0 0.06479,0.06479 -0.06479,0.323966 0,0.388759 0.03054,0.03054 0.09905,-0.03054 0.129586,0 0.06479,0.06479 -0.06479,0.323965 0,0.388759 0.03054,0.03054 0.09904,-0.03054 0.129586,0 0.0052,0.0052 0,0.470756 0,0.518344 0,0.345564 0,0.691127 0,1.03669 0,0.0432 0.03054,0.09905 0,0.129586 -0.03054,0.03054 -0.09904,-0.03054 -0.129586,0 -0.0265,0.0265 0.02569,0.337379 0,0.388758 -0.02732,0.05463 -0.10227,0.07495 -0.129586,0.129587 -0.03515,0.0703 0.03545,0.482886 0,0.518344 -0.172782,0.172782 -0.129587,-0.215976 -0.129587,0.129587 0,0.0432 0,0.08639 0,0.129586 0,0.0432 0.03054,0.09905 0,0.129586 -0.03054,0.03054 -0.09905,-0.03054 -0.129586,0 -0.06109,0.06108 0.06108,0.198085 0,0.259172 -0.03054,0.03054 -0.09904,-0.03054 -0.129586,0 -0.06109,0.06108 0.06108,0.198086 0,0.259173 -0.03054,0.03054 -0.09904,-0.03054 -0.129586,0 -0.03054,0.03054 0.03054,0.09905 0,0.129586 -0.03054,0.03054 -0.09905,-0.03054 -0.129586,0 -0.03054,0.03054 0.03054,0.09905 0,0.129586 -0.03054,0.03054 -0.09905,-0.03054 -0.129586,0 -0.06109,0.06109 0.06108,0.198084 0,0.259172 -0.03054,0.03054 -0.09905,-0.03054 -0.129587,0 -0.03054,0.03054 0.03054,0.09905 0,0.129587 -0.03054,0.03054 -0.09904,-0.03054 -0.129586,0 -0.03054,0.03054 0.03054,0.09905 0,0.129586 -0.03054,0.03054 -0.09904,-0.03054 -0.129586,0 -0.03054,0.03054 0.01931,0.09095 0,0.129586 -0.02732,0.05463 -0.102269,0.07494 -0.129586,0.129586 -0.01931,0.03864 0.03054,0.09905 0,0.129586 -0.03054,0.03054 -0.09904,-0.03054 -0.129586,0 -0.06109,0.06109 0.06108,0.198085 0,0.259173 -0.03054,0.03054 -0.09905,-0.03054 -0.129587,0 -0.06479,0.06479 0.06479,0.323965 0,0.388758 -0.03054,0.03054 -0.09905,-0.03054 -0.129586,0 -0.06109,0.06109 0.06108,0.198085 0,0.259173 -0.03054,0.03054 -0.09904,-0.03054 -0.129586,0 -0.06109,0.06109 0.06108,0.198084 0,0.259172 -0.03054,0.03054 -0.09905,-0.03054 -0.129586,0 -0.06479,0.06479 0.06479,0.323965 0,0.388758 -0.03054,0.03054 -0.09904,-0.03054 -0.129586,0 -0.06479,0.06479 0.06479,0.323966 0,0.388759 -0.03054,0.03054 -0.09905,-0.03054 -0.129586,0 -0.06109,0.06109 0.06108,0.198084 0,0.259172 -0.03054,0.03054 -0.09905,-0.03054 -0.129587,0 -0.06109,0.06109 0.03864,0.181902 0,0.259173 -0.02732,0.05463 -0.102269,0.07494 -0.129586,0.129586 -0.01931,0.03864 0.03054,0.09905 0,0.129586 -0.03054,0.03054 -0.09905,-0.03054 -0.129586,0 -0.03054,0.03054 0.03054,0.09905 0,0.129586 -0.03054,0.03054 -0.09904,-0.03054 -0.129586,0 -0.06109,0.06109 0.03864,0.181902 0,0.259173 -0.02732,0.05463 -0.10227,0.07494 -0.129586,0.129586 -0.01931,0.03864 0,0.08639 0,0.129586 -0.0432,0.0432 -0.10227,0.07494 -0.129586,0.129586 -0.01931,0.03864 0,0.08639 0,0.129586 -0.0432,0.0432 -0.10227,0.07494 -0.129587,0.129586 -0.03864,0.07728 0.06108,0.198085 0,0.259173 -0.03054,0.03054 -0.09905,-0.03054 -0.129586,0 -0.03054,0.03054 0.03054,0.09905 0,0.129586 -0.03054,0.03054 -0.09904,-0.03054 -0.129586,0 -0.06109,0.06109 0.06108,0.198084 0,0.259172 -0.03054,0.03054 -0.09905,-0.03054 -0.129586,0 -0.03054,0.03054 0.01931,0.09095 0,0.129587 -0.02732,0.05463 -0.10227,0.07494 -0.129586,0.129586 -0.01931,0.03864 0.03054,0.09905 0,0.129586 -0.03054,0.03054 -0.09905,-0.03054 -0.129587,0 -0.06109,0.06109 0.06108,0.198084 0,0.259172 -0.03054,0.03054 -0.09905,-0.03054 -0.129586,0 -0.03054,0.03054 0.03054,0.09905 0,0.129586 -0.03054,0.03054 -0.09904,-0.03054 -0.129586,0 -0.03054,0.03054 0.03054,0.09905 0,0.129587 -0.03054,0.03054 -0.09905,-0.03054 -0.129586,0 -0.03054,0.03054 0.01931,0.09095 0,0.129586 -0.02732,0.05463 -0.10227,0.07495 -0.129586,0.129586 -0.01931,0.03864 0.03054,0.09905 0,0.129586 -0.03054,0.03054 -0.09095,-0.01931 -0.129586,0 -0.539307,0.269654 0.138531,-0.0089 -0.129587,0.259173 -0.03054,0.03054 -0.08639,0 -0.129586,0 0,0.0432 0.01931,0.09095 0,0.129586 -0.269653,0.539306 0.0089,-0.138532 -0.259172,0.129586 -0.08639,0.08639 0.08639,0.172782 0,0.259172 -0.03054,0.03054 -0.09905,-0.03054 -0.129586,0 -0.03054,0.03054 0.03054,0.09905 0,0.129586 -0.03054,0.03054 -0.09905,-0.03054 -0.129587,0 -0.03054,0.03054 0.03054,0.09905 0,0.129587 -0.03054,0.03054 -0.09904,-0.03054 -0.129586,0 -0.03054,0.03054 0.03054,0.09905 0,0.129586 -0.03054,0.03054 -0.09905,-0.03054 -0.129586,0 -0.03054,0.03054 0.03054,0.09905 0,0.129586 -0.03054,0.03054 -0.09904,-0.03054 -0.129586,0 -0.03054,0.03054 0.03054,0.09905 0,0.129586 -0.03054,0.03054 -0.09095,-0.01931 -0.129586,0 -0.05463,0.02732 -0.07495,0.10227 -0.129586,0.129586 -0.03864,0.01931 -0.09905,-0.03054 -0.129587,0 -0.03054,0.03054 0.03054,0.09905 0,0.129587 -0.03054,0.03054 -0.09905,-0.03054 -0.129586,0 -0.03054,0.03054 0.03054,0.09905 0,0.129586 -0.06109,0.06109 -0.198085,-0.06109 -0.259172,0 -0.03054,0.03054 0.03054,0.09905 0,0.129586 -0.03054,0.03054 -0.09905,-0.03054 -0.129586,0 -0.03054,0.03054 0.03054,0.09905 0,0.129586 -0.03054,0.03054 -0.09905,-0.03054 -0.129587,0 -0.03054,0.03054 0.03054,0.09905 0,0.129586 -0.03054,0.03054 -0.09905,-0.03054 -0.129586,0 -0.03054,0.03054 0.03054,0.09905 0,0.129586 -0.06109,0.06109 -0.198084,-0.06109 -0.259172,0 -0.03054,0.03054 0.03054,0.09905 0,0.129587 -0.03054,0.03054 -0.09904,-0.03054 -0.129586,0 -0.03054,0.03054 0.03054,0.09905 0,0.129586 -0.03054,0.03054 -0.09905,-0.03054 -0.129586,0 -0.03054,0.03054 0.03054,0.09905 0,0.129586 -0.03054,0.03054 -0.09095,-0.01931 -0.129587,0 -0.05463,0.02732 -0.07495,0.102269 -0.129586,0.129586 -0.03864,0.01931 -0.09905,-0.03054 -0.129586,0 -0.03054,0.03054 0.03054,0.09905 0,0.129586 -0.03054,0.03054 -0.09904,-0.03054 -0.129586,0 -0.03054,0.03054 0.03054,0.09905 0,0.129587 -0.06109,0.06109 -0.198085,-0.06109 -0.259173,0 -0.03054,0.03054 0.03054,0.09905 0,0.129586 -0.03054,0.03054 -0.09904,-0.03054 -0.129586,0 -0.03054,0.03054 0.03054,0.09905 0,0.129586 -0.03054,0.03054 -0.09905,-0.03054 -0.129586,0 -0.03054,0.03054 0.03054,0.09905 0,0.129586 -0.03054,0.03054 -0.09904,-0.03054 -0.129586,0 -0.03054,0.03054 0.03054,0.09904 0,0.129586 -0.03054,0.03054 -0.09904,-0.03054 -0.129586,0 -0.03054,0.03054 0.03054,0.09905 0,0.129586 -0.03054,0.03054 -0.09905,-0.03054 -0.129586,0 -0.03054,0.03054 0.03054,0.09905 0,0.129587 -0.08639,0.08639 -0.172782,-0.08639 -0.259173,0 -0.03054,0.03054 0.01931,0.09095 0,0.129586 -0.02732,0.05463 -0.102269,0.07495 -0.129586,0.129586 -0.01931,0.03864 0.03054,0.09904 0,0.129586 -0.03054,0.03054 -0.09904,-0.03054 -0.129586,0 -0.03054,0.03054 0.03054,0.09905 0,0.129586 -0.03054,0.03054 -0.09905,-0.03054 -0.129586,0 -0.03054,0.03054 0.03054,0.09905 0,0.129587 -0.03054,0.03054 -0.09905,-0.03054 -0.129587,0 -0.03054,0.03054 0.03054,0.09905 0,0.129586 -0.03054,0.03054 -0.09904,-0.03054 -0.129586,0 -0.03054,0.03054 0.03054,0.09904 0,0.129586 -0.03054,0.03054 -0.09905,-0.03054 -0.129586,0 -0.03054,0.03054 0.03054,0.09905 0,0.129586 -0.03054,0.03054 -0.09904,-0.03054 -0.129586,0 -0.06109,0.06109 0.06109,0.198084 0,0.259172 -0.03054,0.03054 -0.09905,-0.03054 -0.129586,0 -0.03054,0.03054 0.03054,0.09905 0,0.129587 -0.03054,0.03054 -0.09905,-0.03054 -0.129586,0 -0.06109,0.06109 0.06109,0.198084 0,0.259172 -0.03054,0.03054 -0.09905,-0.03054 -0.129587,0 -0.06109,0.06109 0.06109,0.198084 0,0.259172 -0.03054,0.03054 -0.09905,-0.03054 -0.129586,0 -0.06109,0.06109 0.06109,0.198085 0,0.259173 -0.03054,0.03054 -0.09904,-0.03054 -0.129586,0 -0.06109,0.06109 0.06109,0.198084 0,0.259172 -0.03054,0.03054 -0.09905,-0.03054 -0.129586,0 -0.06109,0.06109 0.06109,0.198084 0,0.259172 -0.03054,0.03054 -0.09905,-0.03054 -0.129586,0 -0.06479,0.06479 0.06479,0.323966 0,0.388759 -0.03054,0.03054 -0.09905,-0.03054 -0.129587,0 -0.06109,0.06109 0.03864,0.181902 0,0.259172 -0.02732,0.05463 -0.102269,0.07495 -0.129586,0.129587 -0.03864,0.07727 0.06109,0.198084 0,0.259172 -0.03054,0.03054 -0.09904,-0.03054 -0.129586,0 -0.06479,0.06479 0.06479,0.323965 0,0.388758 -0.03054,0.03054 -0.09905,-0.03054 -0.129586,0 -0.06479,0.06479 0.06479,0.323966 0,0.388759 -0.03054,0.03054 -0.09904,-0.03054 -0.129586,0 -0.06479,0.06479 0.06479,0.323965 0,0.388759 -0.03054,0.03054 -0.09905,-0.03054 -0.129586,0 -0.03545,0.03545 0.03515,0.448045 0,0.518344 -0.02732,0.05463 -0.10227,0.07495 -0.129587,0.129586 -0.05183,0.103669 0.05184,0.28509 0,0.388759 -0.02732,0.05463 -0.102269,0.07495 -0.129586,0.129586 -0.01931,0.03864 0,0.08639 0,0.129586 0,0.215977 0,0.431955 0,0.647931 0,0.0432 0,0.08639 0,0.129586 0,0.0432 0.01931,0.09095 0,0.129587 -0.02732,0.05463 -0.102269,0.07495 -0.129586,0.129586 -0.03934,0.07869 0.03934,0.698829 0,0.777517 -0.02732,0.05463 -0.102269,0.07495 -0.129586,0.129586 -0.04088,0.08175 0.04088,0.566179 0,0.647931 -0.02732,0.05463 -0.10227,0.07495 -0.129586,0.129586 -0.02343,0.04686 0,0.557799 0,0.647931 0,0.0432 0.03054,0.09905 0,0.129586 -0.03054,0.03054 -0.09905,-0.03054 -0.129587,0 -0.03054,0.03054 0,0.08639 0,0.129586 0,0.0432 0,0.08639 0,0.129587 0,0.345562 0,0.691126 0,1.036689 0,0.475149 0,0.950299 0,1.425448 0,0.06776 0.01703,0.484271 0,0.518345 -0.02732,0.05464 -0.102269,0.07495 -0.129586,0.129586 -0.01972,0.03944 0,0.330398 0,0.388758 0,0.345563 0,0.691127 0,1.03669 0,0.0432 0,0.08639 0,0.129586 0,0.0432 0.03054,0.09904 0,0.129586 -0.03054,0.03054 -0.09905,-0.03054 -0.129586,0 -0.0052,0.0052 0,0.470756 0,0.518345 0,0.647931 0,1.295862 0,1.943793 0,0.03143 0.0041,0.384591 0,0.388758 -0.03054,0.03054 -0.09904,-0.03054 -0.129586,0 -0.03054,0.03054 0,0.08639 0,0.129586 0,0.302369 0,0.604736 0,0.907104 0,0.03143 0.0041,0.384591 0,0.388758 -0.03054,0.03054 -0.09905,-0.03054 -0.129586,0 -0.03118,0.03118 0.03118,0.487162 0,0.518345 -0.03054,0.03054 -0.09905,-0.03054 -0.129586,0 -0.04549,0.04549 0.04475,0.558421 0,0.647931 -0.02732,0.05464 -0.10227,0.07495 -0.129587,0.129586 -0.01931,0.03864 0,0.08639 0,0.129586 0,0.0432 0,0.08639 0,0.129586 0,0.259173 0,0.518345 0,0.777518 0,0.0432 0,0.08639 0,0.129586 0,0.0432 0.03054,0.09904 0,0.129586 -0.03054,0.03054 -0.09905,-0.03054 -0.129586,0 -0.03054,0.03054 0,0.08639 0,0.129586 0,0.0432 0,0.08639 0,0.129586 0,0.345563 0,0.691127 0,1.03669 0,0.0432 0,0.08639 0,0.129586 0,0.0432 0.03054,0.09904 0,0.129586 -0.03054,0.03054 -0.09904,-0.03054 -0.129586,0 -0.03054,0.03054 0,0.08639 0,0.129586 0,0.259173 0,0.518345 0,0.777517 0,0.0432 0.03054,0.09905 0,0.129587 -0.03054,0.03054 -0.09905,-0.03054 -0.129586,0 -0.03118,0.03118 0.03118,0.487162 0,0.518344 -0.03054,0.03054 -0.09904,-0.03054 -0.129586,0 -0.04013,0.04013 0.04013,0.607805 0,0.647931 -0.03054,0.03054 -0.09905,-0.03054 -0.129587,0 -0.06109,0.06109 0.06109,0.198085 0,0.259173 -0.03054,0.03054 -0.09905,-0.03054 -0.129586,0 -0.06109,0.06109 0.06109,0.198084 0,0.259172 -0.03054,0.03054 -0.09904,-0.03054 -0.129586,0 -0.03054,0.03054 0.01931,0.09095 0,0.129586 -0.02732,0.05464 -0.102269,0.07495 -0.129586,0.129586 -0.01931,0.03864 0.03054,0.09905 0,0.129586 -0.06109,0.06109 -0.198084,-0.06109 -0.259172,0 -0.06109,0.06109 0.06109,0.198085 0,0.259173 -0.268118,0.268118 0.01048,-0.409721 -0.259173,0.129586 -0.01931,0.03864 0.03054,0.09905 0,0.129586 -0.06109,0.06109 -0.198084,-0.06109 -0.259172,0 -0.03054,0.03054 0.03054,0.09904 0,0.129586 -0.03054,0.03054 -0.09905,-0.03054 -0.129586,0 -0.03054,0.03054 0.03054,0.09905 0,0.129587 -0.06109,0.06109 -0.198085,-0.06109 -0.259173,0 -0.03054,0.03054 0.03054,0.09905 0,0.129586 -0.06109,0.06109 -0.198084,-0.06109 -0.259172,0 -0.03054,0.03054 0.03054,0.09904 0,0.129586 -0.06109,0.06109 -0.198084,-0.06109 -0.259172,0 -0.03054,0.03054 0.03054,0.09905 0,0.129586 -0.03054,0.03054 -0.08639,0 -0.129587,0 -0.04758,0 -0.51313,0.0052 -0.518344,0 -0.03054,-0.03054 0.03054,-0.09904 0,-0.129586 -0.03054,-0.03054 -0.08639,0 -0.129587,0 -0.302368,0 -0.604735,0 -0.907103,0 -0.820713,0 -1.641424,0 -2.462137,0 -0.03143,0 -0.384591,0.0041 -0.388759,0 -0.03054,-0.03054 0.03054,-0.09904 0,-0.129586 -0.06109,-0.06109 -0.181901,0.03864 -0.259172,0 -0.05463,-0.02732 -0.07495,-0.10227 -0.129586,-0.129586 -0.07728,-0.03864 -0.198085,0.06109 -0.259173,0 -0.03054,-0.03054 0.03054,-0.09905 0,-0.129587 -0.08639,-0.08639 -0.172782,0.08639 -0.259172,0 -0.06109,-0.06109 0.06109,-0.198084 0,-0.259172 -0.03054,-0.03054 -0.08639,0 -0.129586,0 0,-0.0432 0.03054,-0.09904 0,-0.129586 -0.03054,-0.03054 -0.09905,0.03054 -0.129586,0 -0.03054,-0.03054 0.01931,-0.09095 0,-0.129586 -0.02732,-0.05463 -0.10227,-0.07494 -0.129587,-0.129587 -0.01931,-0.03864 0.03054,-0.09904 0,-0.129586 -0.03054,-0.03054 -0.09905,0.03054 -0.129586,0 -0.06109,-0.06109 0.06109,-0.198084 0,-0.259172 -0.03054,-0.03054 -0.09905,0.03054 -0.129586,0 -0.06109,-0.06109 0.06109,-0.198085 0,-0.259172 -0.03054,-0.03054 -0.09905,0.03054 -0.129586,0 -0.03054,-0.03054 0,-0.08639 0,-0.129587 0,-0.0432 0,-0.08639 0,-0.129586 0,-0.345563 0.0432,0.0432 -0.129586,-0.129586 -0.03118,-0.03118 0.03118,-0.487162 0,-0.518345 -0.03054,-0.03054 -0.09905,0.03054 -0.129587,0 -0.04013,-0.04013 0.04013,-0.607805 0,-0.647931 -0.03054,-0.03054 -0.09905,0.03054 -0.129586,0 -0.0041,-0.0041 0,-0.35733 0,-0.388758 0,-0.345563 -0.0432,0.0432 0.129586,-0.129586 0.03054,-0.03054 0,-0.08639 0,-0.129587 0,-0.215976 0,-0.431954 0,-0.64793 0,-0.647931 0,-1.295862 0,-1.943793 0,-0.03143 -0.0041,-0.384591 0,-0.388759 0.03054,-0.03054 0.09905,0.03054 0.129587,0 0.03054,-0.03054 0,-0.08639 0,-0.129586 0,-0.0432 0,-0.08639 0,-0.129586 0,-0.604735 0,-1.209471 0,-1.814207 0,-0.863907 0,-1.727816 0,-2.591723 0,-0.345563 0,-0.691127 0,-1.03669 0,-0.0432 0,-0.08639 0,-0.129586 0,-0.0432 -0.03054,-0.09905 0,-0.129586 0.03054,-0.03054 0.09905,0.03054 0.129586,0 0.03545,-0.03545 -0.03515,-0.448046 0,-0.518345 0.02732,-0.05463 0.102269,-0.07494 0.129586,-0.129586 0.01703,-0.03408 0,-0.450581 0,-0.518345 0,-0.03143 -0.0041,-0.384591 0,-0.388758 0.03054,-0.03054 0.09905,0.03054 0.129586,0 0.06479,-0.06479 -0.06479,-0.323966 0,-0.388759 0.03054,-0.03054 0.09905,0.03054 0.129586,0 0.03054,-0.03054 0,-0.08639 0,-0.129586 0,-0.0432 0,-0.08639 0,-0.129586 0,-0.345563 0,-0.691127 0,-1.03669 0,-0.05835 -0.01972,-0.34932 0,-0.388758 0.02732,-0.05463 0.10227,-0.07495 0.129587,-0.129586 0.03515,-0.0703 -0.03545,-0.482887 0,-0.518345 0.03054,-0.03054 0.09905,0.03054 0.129586,0 0.04549,-0.04549 -0.04475,-0.558421 0,-0.647931 0.02732,-0.05463 0.102269,-0.07495 0.129586,-0.129586 0.03515,-0.0703 -0.03545,-0.482887 0,-0.518345 0.03054,-0.03054 0.09905,0.03054 0.129586,0 0.06479,-0.06479 -0.06479,-0.323965 0,-0.388758 0.03054,-0.03054 0.09905,0.03054 0.129586,0 0.04549,-0.04549 -0.04475,-0.558421 0,-0.647931 0.02732,-0.05463 0.10227,-0.07495 0.129586,-0.129586 0.03864,-0.07728 -0.03864,-0.181902 0,-0.259173 0.02732,-0.05463 0.10227,-0.07495 0.129587,-0.129586 0.03864,-0.07728 -0.03864,-0.181902 0,-0.259172 0.02732,-0.05463 0.102269,-0.07495 0.129586,-0.129587 0.02569,-0.05138 -0.0265,-0.362266 0,-0.388758 0.03054,-0.03054 0.09905,0.03054 0.129586,0 0.03118,-0.03118 -0.03118,-0.487162 0,-0.518345 0.03054,-0.03054 0.09905,0.03054 0.129586,0 0.04013,-0.04013 -0.04013,-0.607805 0,-0.647931 0.03054,-0.03054 0.09905,0.03054 0.129586,0 0.03054,-0.03054 0,-0.08639 0,-0.129586 0,-0.259172 0,-0.518345 0,-0.777517 0,-0.0432 0,-0.08639 0,-0.129586 0,-0.0432 0.03054,-0.09905 0,-0.129586 -0.03054,-0.03054 -0.09905,0.03054 -0.129586,0 -0.0265,-0.0265 0.02569,-0.337379 0,-0.388759 -0.02732,-0.05463 -0.102269,-0.07495 -0.129586,-0.129586 -0.03864,-0.07728 0.06109,-0.198084 0,-0.259172 -0.03054,-0.03054 -0.09904,0.03054 -0.129586,0 -0.06109,-0.06109 0.03864,-0.181902 0,-0.259173 -0.02732,-0.05463 -0.10227,-0.07495 -0.129586,-0.129586 -0.03864,-0.07728 0.06109,-0.198084 0,-0.259172 -0.03054,-0.03054 -0.09905,0.03054 -0.129587,0 -0.03118,-0.03118 0.03118,-0.487163 0,-0.518345 -0.03054,-0.03054 -0.09905,0.03054 -0.129586,0 -0.06109,-0.06109 0.06109,-0.198084 0,-0.259172 -0.03054,-0.03054 -0.09904,0.03054 -0.129586,0 -0.06479,-0.06479 0.06479,-0.323966 0,-0.388759 -0.03054,-0.03054 -0.09905,0.03054 -0.129586,0 -0.06109,-0.06109 0.06109,-0.198084 0,-0.259172 -0.03054,-0.03054 -0.09905,0.03054 -0.129586,0 -0.06109,-0.06109 0.06109,-0.198085 0,-0.259173 -0.03054,-0.03054 -0.09905,0.03054 -0.129586,0 -0.03054,-0.03054 0.01931,-0.09095 0,-0.129586 -0.02732,-0.05463 -0.10227,-0.07495 -0.129587,-0.129586 -0.01931,-0.03864 0.03054,-0.09905 0,-0.129586 -0.03054,-0.03054 -0.09905,0.03054 -0.129586,0 -0.03054,-0.03054 0.01931,-0.09095 0,-0.129586 -0.02732,-0.05463 -0.102269,-0.07495 -0.129586,-0.129587 -0.01931,-0.03864 0.01931,-0.09095 0,-0.129586 -0.02732,-0.05463 -0.102269,-0.07495 -0.129586,-0.129586 -0.01931,-0.03864 0.03054,-0.09905 0,-0.129586 -0.03054,-0.03054 -0.09905,0.03054 -0.129586,0 -0.03054,-0.03054 0.03054,-0.09904 0,-0.129586 -0.03054,-0.03054 -0.09905,0.03054 -0.129587,0 -0.03054,-0.03054 0.01931,-0.09095 0,-0.129587 -0.02732,-0.05463 -0.102269,-0.07495 -0.129586,-0.129586 -0.01931,-0.03864 0.03054,-0.09905 0,-0.129586 -0.03054,-0.03054 -0.09905,0.03054 -0.129586,0 -0.03054,-0.03054 0.03054,-0.09905 0,-0.129586 -0.03054,-0.03054 -0.09905,0.03054 -0.129586,0 -0.03054,-0.03054 0.03054,-0.09904 0,-0.129586 -0.03054,-0.03054 -0.09095,0.01931 -0.129586,0 -0.05463,-0.02732 -0.07495,-0.10227 -0.129586,-0.129586 -0.03864,-0.01931 -0.09905,0.03054 -0.129587,0 -0.03054,-0.03054 0.03054,-0.09905 0,-0.129587 -0.03054,-0.03054 -0.09095,0.01931 -0.129586,0 -0.05463,-0.02732 -0.07495,-0.102269 -0.129586,-0.129586 -0.03864,-0.01931 -0.09905,0.03054 -0.129586,0 -0.03054,-0.03054 0.03054,-0.09904 0,-0.129586 -0.03054,-0.03054 -0.09905,0.03054 -0.129586,0 -0.03054,-0.03054 0.03054,-0.09905 0,-0.129586 -0.06109,-0.06109 -0.198086,0.06109 -0.259173,0 -0.03054,-0.03054 0.03054,-0.09905 0,-0.129586 -0.03054,-0.03054 -0.09905,0.03054 -0.129586,0 -0.03054,-0.03054 0.03054,-0.09905 0,-0.129587 -0.03054,-0.03054 -0.09905,0.03054 -0.129586,0 -0.03054,-0.03054 0.03054,-0.09904 0,-0.129586 -0.03054,-0.03054 -0.09905,0.03054 -0.129586,0 -0.03054,-0.03054 0.01931,-0.09095 0,-0.129586 -0.02732,-0.05463 -0.10227,-0.07495 -0.129586,-0.129586 -0.01931,-0.03864 0.03054,-0.09905 0,-0.129586 -0.03054,-0.03054 -0.09905,0.03054 -0.129587,0 -0.03054,-0.03054 0.03054,-0.09905 0,-0.129586 -0.03054,-0.03054 -0.09905,0.03054 -0.129586,0 -0.03054,-0.03054 0.03054,-0.09905 0,-0.129587 -0.03054,-0.03054 -0.09905,0.03054 -0.129586,0 -0.03054,-0.03054 0.03054,-0.09905 0,-0.129586 -0.03054,-0.03054 -0.09905,0.03054 -0.129586,0 -0.03054,-0.03054 0.01931,-0.09095 0,-0.129586 -0.02732,-0.05463 -0.08639,-0.08639 -0.129586,-0.129586 -0.0432,-0.0432 -0.07495,-0.10227 -0.129586,-0.129586 -0.03864,-0.01931 -0.09905,0.03054 -0.129587,0 -0.268118,-0.268118 0.409721,0.01048 -0.129586,-0.259173 -0.03864,-0.01931 -0.09905,0.03054 -0.129586,0 -0.03054,-0.03054 0.01931,-0.09095 0,-0.129586 -0.05463,-0.109276 -0.204534,-0.149896 -0.259172,-0.259172 -0.01931,-0.03864 0.03054,-0.09905 0,-0.129586 -0.03054,-0.03054 -0.09905,0.03054 -0.129587,0 -0.03054,-0.03054 0.03054,-0.09905 0,-0.129587 -0.03054,-0.03054 -0.09905,0.03054 -0.129586,0 -0.03054,-0.03054 0.01931,-0.09095 0,-0.129586 -0.02732,-0.05463 -0.102269,-0.07495 -0.129586,-0.129586 -0.01931,-0.03864 0.01931,-0.09095 0,-0.129586 -0.02732,-0.05463 -0.102269,-0.07495 -0.129586,-0.129586 -0.01931,-0.03864 0.03054,-0.09905 0,-0.129587 -0.03054,-0.03054 -0.09905,0.03054 -0.129586,0 -0.06109,-0.06109 0.06109,-0.198084 0,-0.259172 -0.03054,-0.03054 -0.09905,0.03054 -0.129586,0 -0.06479,-0.06479 0.06479,-0.323965 0,-0.388758 -0.03054,-0.03054 -0.09905,0.03054 -0.129587,0 -0.06109,-0.06109 0.06109,-0.198085 0,-0.259173 -0.03054,-0.03054 -0.09905,0.03054 -0.129586,0 -0.06109,-0.06109 0.03864,-0.181901 0,-0.259172 -0.02732,-0.05464 -0.102269,-0.07495 -0.129586,-0.129586 -0.03864,-0.07728 0.06109,-0.198085 0,-0.259173 -0.03054,-0.03054 -0.09905,0.03054 -0.129586,0 -0.06109,-0.06109 0.06109,-0.198084 0,-0.259172 -0.03054,-0.03054 -0.09905,0.03054 -0.129586,0 -0.03118,-0.03118 0.03118,-0.487162 0,-0.518345 -0.03054,-0.03054 -0.09905,0.03054 -0.129587,0 -0.06479,-0.06479 0.06479,-0.323965 0,-0.388758 -0.03054,-0.03054 -0.09905,0.03054 -0.129586,0 -0.06479,-0.06479 0.06479,-0.323966 0,-0.388759 -0.03054,-0.03054 -0.09905,0.03054 -0.129586,0 -0.06479,-0.06479 0.06479,-0.323965 0,-0.388758 -0.03054,-0.03054 -0.09905,0.03054 -0.129586,0 -0.03118,-0.03118 0.03118,-0.487163 0,-0.518345 -0.03054,-0.03054 -0.09904,0.03054 -0.129586,0 -0.06479,-0.06479 0.06479,-0.323966 0,-0.388759 -0.03054,-0.03054 -0.09905,0.03054 -0.129586,0 -0.06479,-0.06479 0.06479,-0.323965 0,-0.388758 -0.03054,-0.03054 -0.09905,0.03054 -0.129587,0 -0.06109,-0.06109 0.03864,-0.181902 0,-0.259173 -0.02732,-0.05464 -0.102269,-0.07495 -0.129586,-0.129586 -0.03864,-0.07728 0.06109,-0.198084 0,-0.259172 -0.03054,-0.03054 -0.09905,0.03054 -0.129586,0 -0.06109,-0.06109 0.03864,-0.181902 0,-0.259172 -0.02732,-0.05464 -0.102269,-0.07495 -0.129586,-0.129587 -0.03864,-0.07728 0.06109,-0.198084 0,-0.259172 -0.03054,-0.03054 -0.09905,0.03054 -0.129586,0 -0.06109,-0.06109 0.06109,-0.198084 0,-0.259172 -0.03054,-0.03054 -0.09905,0.03054 -0.129587,0 -0.06109,-0.06109 0.06109,-0.198085 0,-0.259173 -0.03054,-0.03054 -0.09905,0.03054 -0.129586,0 -0.06109,-0.06109 0.03209,-0.17896 0,-0.259172 -0.07175,-0.179359 -0.172782,-0.345563 -0.259172,-0.518345 z"
       id="path4624"
       inkscape:connector-curvature="0" />
  </g>
  <g
     inkscape:groupmode="layer"
     id="layer4"
     inkscape:label="Calque 4">
    <path
       style="fill:#333333;fill-opacity:1;stroke:#000000;stroke-width:0.5183447;stroke-miterlimit:4;stroke-dasharray:none;stroke-opacity:1"
       id="path4641"
       d="m 5.9320934,3.5860624 c 0.1185654,0.3340583 0.2374156,0.6701035 0.3886736,0.9910532 0.1226108,0.224918 0.1732517,0.47591 0.2415323,0.7201242 0.073687,0.2451687 0.1297248,0.4967553 0.2081889,0.7403005 0.063239,0.2080833 0.1338951,0.4127231 0.2022747,0.6191206 0.1040532,0.1894999 0.1610289,0.3922343 0.1948028,0.6043688 0.031279,0.2525035 0.031486,0.5074411 0.032955,0.7614639 4.658e-4,0.2597263 -5.081e-4,0.5194525 -9.757e-4,0.7791785 0.0014,0.2652795 0.00803,0.529062 -0.030569,0.7920276 -0.052681,0.2518948 -0.065629,0.5090013 -0.097654,0.7635583 -0.04357,0.23082 -0.1037076,0.457277 -0.1655461,0.683643 -0.042427,0.23462 -0.099902,0.464147 -0.1704628,0.69184 -0.083099,0.238655 -0.1631197,0.478332 -0.2455445,0.717224 -0.085034,0.200154 -0.1495523,0.407448 -0.2263429,0.610761 -0.058548,0.198576 -0.1326263,0.390962 -0.1907479,0.589714 -0.073145,0.189811 -0.1291932,0.384616 -0.1992269,0.575552 -0.068929,0.226177 -0.1412255,0.450051 -0.1840683,0.682883 -0.053404,0.227206 -0.1097962,0.454747 -0.176627,0.678574 -0.066096,0.247383 -0.1123715,0.499266 -0.1703758,0.748773 -0.067358,0.221166 -0.1456978,0.435301 -0.1836574,0.664189 -0.032175,0.246199 -0.032698,0.495026 -0.034452,0.742879 0.00776,0.265529 -0.053649,0.525753 -0.088008,0.787661 -0.030701,0.255001 -0.035924,0.512006 -0.039541,0.768524 -0.00384,0.255557 -0.010974,0.509536 0.028211,0.762589 0.031411,0.226238 0.079042,0.45151 0.169147,0.662167 0.09618,0.189201 0.1318181,0.398651 0.1994506,0.598107 0.048423,0.205674 0.1301172,0.400423 0.1830936,0.604747 0.05719,0.18756 0.1446831,0.362078 0.2169613,0.543528 0.048534,0.08357 0.088468,0.17077 0.1262159,0.259553 0,0 -1.6811692,0.942172 -1.6811692,0.942172 l 0,0 C 4.2014947,23.581587 4.1593854,23.49396 4.1103935,23.408836 4.0375978,23.218632 3.9438908,23.037692 3.8823561,22.842712 3.8354713,22.641921 3.7492918,22.454723 3.7064815,22.252863 3.639894,22.057972 3.6044061,21.854879 3.5148162,21.668365 3.416562,21.444503 3.360158,21.204389 3.327239,20.962622 3.280588,20.699177 3.272509,20.43776 3.283173,20.170134 c 0.00224,-0.262616 0.00517,-0.525635 0.030342,-0.787269 0.028307,-0.256821 0.091687,-0.509958 0.097685,-0.767689 4.867e-4,-0.255032 -2.177e-4,-0.510546 0.021535,-0.76486 0.02624,-0.23519 0.071899,-0.46556 0.1788501,-0.67917 0.053476,-0.254163 0.1175601,-0.504532 0.1631406,-0.760277 0.064318,-0.218888 0.1136273,-0.440462 0.1880868,-0.656451 0.033336,-0.242955 0.098324,-0.47444 0.1672724,-0.70846 0.057452,-0.197693 0.1405627,-0.38448 0.1951785,-0.583276 0.046865,-0.09703 0.058763,-0.19381 0.093163,-0.295362 0.020757,-0.06128 0.057107,-0.116548 0.077487,-0.177951 0.011849,-0.0357 0.015802,-0.07355 0.023703,-0.110337 0.06346,-0.211886 0.1544152,-0.413422 0.2233756,-0.623619 0.1102151,-0.223886 0.1602456,-0.475214 0.248902,-0.708345 0.088773,-0.216385 0.1444993,-0.445482 0.1793164,-0.676198 0.053477,-0.225448 0.1246942,-0.444739 0.1694198,-0.672365 0.06579,-0.246772 0.036799,-0.511648 0.1019864,-0.760505 0.046942,-0.253945 0.05319,-0.5055475 0.044246,-0.7640408 4.194e-4,-0.2593725 0.00125,-0.5187439 0.00137,-0.7781163 C 5.4876214,8.6502698 5.4886877,8.4040849 5.4654339,8.159366 5.4391804,7.9555813 5.3874387,7.7644359 5.2845823,7.5844771 5.2192471,7.3771791 5.1436629,7.1744755 5.0850588,6.9649906 5.0028163,6.7198379 4.9526422,6.4629831 4.8735777,6.2165519 4.8078716,5.9818877 4.7607337,5.7405513 4.6500436,5.5214264 4.5032948,5.196787 4.3926574,4.8565189 4.2545639,4.5282127 c 0,0 1.6775295,-0.9421503 1.6775295,-0.9421503 z"
       inkscape:connector-curvature="0" />
    <path
       style="fill:#333333;fill-opacity:1;stroke:#000000;stroke-width:0.5183447;stroke-miterlimit:4;stroke-dasharray:none;stroke-opacity:1"
       id="path4645"
       d="m 28.202285,5.8285107 c 0.05236,0.4011833 0.06983,0.8005144 0.0455,1.2040212 -0.02729,0.2821759 -0.02255,0.5672474 -0.07694,0.8460468 -0.03139,0.21221 -0.107383,0.4115456 -0.166651,0.6162598 -0.0323,0.2150731 -0.08944,0.4239131 -0.138693,0.6353719 -0.05225,0.2154634 -0.13955,0.4204273 -0.212661,0.6292819 -0.08728,0.2010379 -0.149511,0.4116837 -0.230801,0.6148887 -0.09449,0.204917 -0.180375,0.413288 -0.284954,0.613379 -0.103535,0.164584 -0.207171,0.330125 -0.292946,0.504801 -0.110964,0.18175 -0.183452,0.382714 -0.286107,0.568918 -0.08284,0.188349 -0.190428,0.360496 -0.308239,0.528213 -0.114756,0.1462 -0.250438,0.27285 -0.375744,0.409377 -0.12957,0.129304 -0.264447,0.253741 -0.389213,0.387812 -0.600712,0.58918 -1.300456,0.846448 -2.090303,1.29932 4.142346,-2.382469 -0.106017,0.06818 -0.160873,0.09914 -0.02931,0.01655 -0.06567,0.01693 -0.09577,0.03199 -0.0918,0.04598 -0.158946,0.09573 -0.259522,0.128977 -0.19064,0.104768 -0.404466,0.177343 -0.582819,0.30202 -0.205551,0.08048 -0.394516,0.18717 -0.588583,0.289936 -0.224114,0.08874 -0.460777,0.142457 -0.684674,0.231209 -0.247625,0.09073 -0.515409,0.139457 -0.751968,0.25657 -0.101305,0.06409 -0.22466,0.06756 -0.33398,0.105855 -0.09976,0.03494 -0.187629,0.08519 -0.291163,0.114759 -0.07432,0.07219 -0.179563,0.0819 -0.267285,0.124764 -0.09162,0.04478 -0.159968,0.09545 -0.259713,0.12873 -0.552116,0.353913 -1.36398,0.767976 1.409908,-0.80636 0.0272,-0.01544 -0.05059,0.03682 -0.07628,0.05467 -0.111389,0.07741 -0.0382,0.01841 -0.14354,0.111063 -0.139081,0.117479 -0.272832,0.243243 -0.396847,0.376803 -0.126985,0.127953 -0.260698,0.250162 -0.381498,0.384113 -0.105297,0.160953 -0.170357,0.343504 -0.257286,0.514138 -0.09974,0.198744 -0.167116,0.411144 -0.256913,0.61402 -0.07128,0.196957 -0.151164,0.392037 -0.212663,0.592455 -0.05737,0.196079 -0.132399,0.386142 -0.224188,0.568506 -0.129213,0.161118 -0.182377,0.344988 -0.21213,0.545458 -0.04138,0.217751 -0.09874,0.430352 -0.126266,0.650817 -0.02485,0.248192 -0.02578,0.49793 -0.0274,0.74711 0,0 -1.713032,0.871892 -1.713032,0.871892 l 0,0 c 5.73e-4,-0.254513 3.84e-4,-0.509302 0.01715,-0.763382 0.01882,-0.22177 0.04896,-0.442273 0.125071,-0.652793 0.01892,-0.217317 0.04086,-0.442728 0.170097,-0.62634 0.131603,-0.146482 0.169211,-0.336526 0.25336,-0.51053 0.04615,-0.215839 0.142829,-0.408716 0.199788,-0.621021 0.08979,-0.204936 0.17373,-0.410265 0.251514,-0.620401 0.08455,-0.178537 0.176169,-0.352767 0.246375,-0.537242 0.0877,-0.174034 0.241198,-0.279011 0.363456,-0.425986 0.144897,-0.113256 0.259756,-0.26232 0.391818,-0.389407 0.259281,-0.187845 -0.116211,0.09214 0.138051,-0.125382 0.572353,-0.489661 1.28911,-0.822843 1.974581,-1.145783 0.174233,-0.08896 0.350491,-0.175955 0.534729,-0.24209 0.204168,-0.07965 0.414191,-0.140651 0.615659,-0.227653 0.252807,-0.08076 0.504616,-0.164576 0.75614,-0.249166 0.227521,-0.07121 0.458018,-0.143827 0.668508,-0.257102 0.191408,-0.106563 0.399697,-0.178919 0.586819,-0.293859 0.200737,-0.09198 0.390711,-0.205896 0.597873,-0.284528 1.928948,-1.010963 -5.062681,2.87819 0.508895,-0.269874 -3.804659,2.21296 -1.529126,1.012408 -1.199893,0.634849 0.144511,-0.111778 0.260805,-0.258865 0.38937,-0.387395 0.144149,-0.110835 0.262302,-0.257291 0.383775,-0.39093 0.146202,-0.130141 0.252782,-0.310211 0.32812,-0.48932 0.10032,-0.189195 0.200773,-0.375311 0.280767,-0.57483 0.114084,-0.158974 0.177147,-0.352248 0.290458,-0.513443 0.142306,-0.171124 0.191399,-0.387457 0.300834,-0.578315 0.08096,-0.201411 0.13696,-0.410326 0.239685,-0.602939 0.05905,-0.208267 0.140438,-0.409362 0.219666,-0.6103777 0.03849,-0.2172279 0.12065,-0.421067 0.134763,-0.6423152 0.04409,-0.2103816 0.139184,-0.4000481 0.16947,-0.6133075 0.07037,-0.2710277 0.07552,-0.5461033 0.09922,-0.8249198 0.0333,-0.3910767 0.04181,-0.7786491 -0.03615,-1.1663743 0,0 1.702269,-0.8941852 1.702269,-0.8941852 z"
       inkscape:connector-curvature="0" />
    <path
       style="fill:#333333;fill-opacity:1;stroke:#000000;stroke-width:0.5183447;stroke-miterlimit:4;stroke-dasharray:none;stroke-opacity:1"
       id="path4651"
       d="m 5.939282,22.733772 c 0.1776518,0.288002 0.4192626,0.507679 0.6754489,0.722468 0.2135341,0.145543 0.4559311,0.259879 0.7019842,0.340622 0.2147674,0.03161 0.4131713,0.116235 0.6266741,0.154999 0.2216247,0.0084 0.4266227,0.09072 0.6436851,0.12831 0.2367282,0.03306 0.4762724,0.03505 0.7148436,0.03776 0.2581827,0.0017 0.5163737,6.78e-4 0.7745591,2.64e-4 0.25943,-4.22e-4 0.518859,-5.41e-4 0.778287,-6.13e-4 0.259205,-5.3e-5 0.518408,-4.6e-5 0.777613,-4.4e-5 0.261006,0.0123 0.512563,4.25e-4 0.768046,-0.04945 0.248041,-0.01491 0.476429,-0.09277 0.714913,-0.15092 0.240134,-0.05044 0.472289,-0.134557 0.705714,-0.210595 0.246168,-0.03896 0.477548,-0.120297 0.718214,-0.179791 0.202982,-0.03627 0.386893,-0.133839 0.571605,-0.220324 0.03227,-0.01041 0.06635,-0.01633 0.09681,-0.03123 0.25897,-0.1268 -0.108632,0.01519 0.16378,-0.09696 0.09841,-0.04051 0.190538,-0.0503 0.284594,-0.102269 0.17712,-0.07859 0.374703,-0.133283 0.534689,-0.244237 0.02886,-0.01423 0.0568,-0.03052 0.08659,-0.04269 0.242271,-0.09905 -0.04006,0.04086 0.17312,-0.08661 0.02757,-0.01648 0.113997,-0.05909 0.08621,-0.04299 -1.651529,0.956431 -2.061667,1.253581 -1.49617,0.849132 3.790791,-2.189886 0.921739,-0.530996 0.16205,-0.09763 -0.02759,0.01574 0.05255,-0.03569 0.0794,-0.05264 0.07727,-0.04878 0.148124,-0.102062 0.222449,-0.155322 0.149048,-0.132734 0.291688,-0.270789 0.455221,-0.386181 0.170506,-0.137464 0.289479,-0.329364 0.402479,-0.514602 0.01839,-0.07541 0.245867,-0.318021 0.158289,-0.386918 -0.184018,-0.03899 -0.373859,-0.03857 -0.561128,-0.04123 -0.26128,-0.01347 -0.513221,0.0012 -0.768746,0.05184 -0.25938,0.05189 -0.523529,0.06763 -0.787251,0.07704 -0.171909,0.01957 -0.349463,-0.01381 -0.520916,0.0057 -4.2e-5,5e-6 -0.21108,0.0525 -0.212685,0.05289 -0.214197,0.02577 -0.401287,0.124298 -0.612741,0.165183 -0.244969,0.01977 -0.477946,0.09429 -0.720943,0.130602 -0.23034,0.04014 -0.448867,0.116407 -0.683592,0.145061 -0.229111,-0.0032 -0.439452,0.082 -0.663434,0.117611 -0.242931,0.047 -0.480684,0.110629 -0.728451,0.139397 -0.240024,-0.0042 -0.4617294,0.08216 -0.6961394,0.119468 -0.157898,0.0358 -0.3244026,0.0092 -0.48283,0.03256 -0.070764,0.01045 -0.1377114,0.03877 -0.2068268,0.0572 -0.2195068,0.01829 -0.4185147,0.09614 -0.6297037,0.148466 -0.2238618,0.01171 -0.4288642,0.08257 -0.6447305,0.132185 -0.2408013,0.02833 -0.4690347,0.10527 -0.708758,0.143232 -0.2295328,0.04204 -0.4473196,0.118056 -0.68164,0.146689 -0.1622821,0.03072 -0.3318275,0.0016 -0.494191,0.02304 -0.07152,0.0094 -0.139443,0.0371 -0.2093222,0.05505 -0.1098233,0.02741 -0.2222482,0.03956 -0.3344573,0.05188 0,0 1.5412488,-1.152567 1.5412488,-1.152567 l 0,0 c 0.1095203,-0.01847 0.2186258,-0.03866 0.3269401,-0.06341 0.2344659,-0.03986 0.4742716,-0.0248 0.7085166,-0.06975 0.2269894,-0.04547 0.4462956,-0.122388 0.6771487,-0.14918 0.2352031,-0.05021 0.4684128,-0.108468 0.704406,-0.154762 0.2124315,-0.05738 0.4297993,-0.07902 0.6423323,-0.135698 0.208728,-0.06254 0.4220984,-0.09403 0.6346664,-0.141192 0.229282,-0.04239 0.464949,-0.03222 0.693297,-0.08387 0.231663,-0.05019 0.461625,-0.09596 0.698945,-0.111222 0.243702,-0.04175 0.481034,-0.110854 0.725569,-0.148182 0.220936,-0.04908 0.439954,-0.09481 0.666228,-0.112597 0.227792,-0.04528 0.448202,-0.121773 0.680254,-0.145747 0.238869,-0.04721 0.476558,-0.09911 0.715861,-0.143345 0.204255,-0.06125 0.404291,-0.131691 0.617496,-0.158044 0.247551,-0.03728 0.498563,-0.01627 0.747895,-0.03397 0.259638,-0.01601 0.517773,-0.04525 0.773319,-0.09504 0.262683,-0.0368 0.527549,-0.02767 0.792217,-0.0221 0.232735,0.01057 0.483773,0.01158 0.663672,0.180392 0.14879,0.222289 0.08601,0.378562 -0.0649,0.581729 -0.09294,0.21372 -0.239375,0.396957 -0.370288,0.588723 -0.101078,0.0914 -0.225476,0.150219 -0.323475,0.245792 -0.02291,0.02234 -0.03761,0.05225 -0.06077,0.07433 -0.02186,0.02085 -0.04881,0.03561 -0.07321,0.05342 -0.08243,0.0939 -0.183396,0.173331 -0.290996,0.235889 -0.05443,0.03165 -4.288926,2.500478 -0.162648,0.09602 -0.697079,0.444852 -1.404923,0.873409 -2.147029,1.23509 -0.183379,0.07286 -0.35926,0.162428 -0.544602,0.231041 -0.189079,0.06034 -0.358904,0.159146 -0.541548,0.235366 -0.18793,0.08727 -0.389052,0.144129 -0.59001,0.192864 -0.234918,0.06971 -0.476425,0.108645 -0.709216,0.18586 -0.235334,0.07865 -0.474795,0.145194 -0.716077,0.20286 -0.237508,0.06548 -0.479596,0.0967 -0.722751,0.135056 -0.261158,0.03557 -0.523959,0.02304 -0.786975,0.02433 -0.2591884,2e-6 -0.5183764,10e-7 -0.7775636,9.6e-5 -0.2593821,1.22e-4 -0.5187641,3.36e-4 -0.778146,7.66e-4 -0.2590468,3.36e-4 -0.5181212,0.0013 -0.7771415,-0.0031 C 7.4979071,25.238823 7.2499157,25.230613 7.007408,25.180893 6.7927278,25.132549 6.5808621,25.076514 6.3617974,25.050218 6.1465524,24.996562 5.9341327,24.930562 5.7204582,24.871768 5.4637213,24.765392 5.2062367,24.647722 4.9894577,24.471231 4.721068,24.243462 4.4822307,23.995404 4.2783768,23.707012 c 0,0 1.6609052,-0.97324 1.6609052,-0.97324 z"
       inkscape:connector-curvature="0" />
    <path
       style="fill:#000000;fill-opacity:1;stroke:#000000;stroke-width:0.00404957;stroke-miterlimit:4;stroke-dasharray:none;stroke-opacity:1"
       d="M 7.5864156,24.978279 C 7.2881699,24.966243 7.1825385,24.951874 6.8706283,24.880923 6.7517793,24.853887 6.5925809,24.821283 6.516854,24.80848 6.4411269,24.795676 6.3445449,24.775772 6.3022269,24.764265 6.0080236,24.684232 5.7853211,24.615852 5.7035134,24.580435 5.5543457,24.515849 5.3756116,24.421767 5.2741717,24.354427 5.1377302,24.263852 4.8106847,23.966505 4.8475039,23.966505 c 0.026264,0 0.4598477,-0.04895 0.5435701,-0.06137 0.0925,-0.01371 0.1785858,-0.03326 0.2834698,-0.06433 0.068333,-0.02025 0.087584,-0.02201 0.3077672,-0.02829 0.2389797,-0.0068 0.2817047,-0.01152 0.4826165,-0.05308 l 0.1019573,-0.02109 0.072174,0.04184 c 0.2204165,0.12779 0.5166554,0.250343 0.6877088,0.284503 0.044545,0.0089 0.1580742,0.0379 0.2522865,0.06446 0.2109702,0.05948 0.2952395,0.07813 0.4018764,0.08893 0.045572,0.0047 0.1721515,0.02987 0.2812874,0.05613 0.3061498,0.07365 0.3759513,0.08356 0.684377,0.09718 0.2433693,0.01075 3.0504361,0.01087 3.1667621,1.32e-4 0.049,-0.0046 0.151049,-0.0171 0.226776,-0.02794 0.07573,-0.01084 0.159554,-0.02199 0.186281,-0.02477 0.08448,-0.0088 0.282755,-0.05123 0.497237,-0.106425 0.375248,-0.09656 0.448141,-0.116956 0.660939,-0.18499 0.115818,-0.03703 0.264397,-0.07881 0.330177,-0.09285 0.06578,-0.01404 0.217031,-0.05264 0.336113,-0.0858 0.220424,-0.06136 0.276768,-0.07279 0.216516,-0.04389 -0.0922,0.04422 -0.449417,0.196442 -0.530494,0.226062 -0.105347,0.03848 -0.210535,0.08341 -0.352312,0.150459 -0.142069,0.06719 -0.273158,0.123711 -0.358914,0.154755 -0.118482,0.04289 -0.39465,0.118033 -0.770915,0.209761 -0.104682,0.02552 -0.259578,0.0682 -0.344214,0.09486 -0.317312,0.09992 -0.713112,0.205898 -0.927351,0.248318 -0.17039,0.03373 -0.50107,0.08149 -0.619584,0.08949 -0.141904,0.0095 -2.8393164,0.0093 -3.0771964,-2.66e-4 z"
       id="path4671"
       inkscape:connector-curvature="0" />
    <path
       style="fill:#000000;fill-opacity:1;stroke:#000000;stroke-width:0.00404957;stroke-miterlimit:4;stroke-dasharray:none;stroke-opacity:1"
       d="m 6.6038507,23.100992 c -0.088903,-0.07997 -0.1040264,-0.09685 -0.094499,-0.10546 0.00413,-0.0037 0.074566,-0.05698 0.156532,-0.118333 l 0.1490293,-0.111553 0.1384901,-0.02754 c 0.1876089,-0.03731 0.2177996,-0.04112 0.4398078,-0.05545 0.3082979,-0.0199 0.3855829,-0.03255 0.7205725,-0.117951 0.085406,-0.02177 0.2075,-0.04848 0.2713211,-0.05934 0.1015717,-0.01729 0.3192381,-0.06411 0.8490103,-0.182592 0.077954,-0.01744 0.2036928,-0.04313 0.2794198,-0.05708 0.177137,-0.03266 0.25987,-0.05097 0.384709,-0.08517 0.1062534,-0.02911 0.5357274,-0.118308 0.6398324,-0.132886 0.03341,-0.0047 0.128169,-0.01409 0.210577,-0.02091 0.204036,-0.0169 0.309116,-0.03185 0.489998,-0.06969 0.197146,-0.04125 0.362348,-0.06826 0.489998,-0.0801 0.116446,-0.0108 0.194089,-0.0249 0.46975,-0.08529 0.109135,-0.02391 0.239446,-0.05084 0.289579,-0.05985 0.05014,-0.009 0.15036,-0.02905 0.222726,-0.04455 0.163001,-0.0349 0.294464,-0.05707 0.431244,-0.07271 0.114789,-0.01312 0.168986,-0.02424 0.413056,-0.08466 0.08909,-0.02206 0.200251,-0.0462 0.247024,-0.05364 0.04678,-0.0075 0.258159,-0.04791 0.46975,-0.08993 0.275127,-0.05463 0.422773,-0.08807 0.518345,-0.117372 0.336578,-0.103192 0.431393,-0.118918 0.777517,-0.128932 0.530811,-0.01535 0.732196,-0.03214 1.075756,-0.0896 0.07717,-0.01291 0.179217,-0.02782 0.226776,-0.03314 0.108893,-0.01218 0.636044,-0.01177 0.789518,6.28e-4 0.220961,0.01784 0.317982,0.05303 0.338925,0.122931 0.01298,0.04333 0.0028,0.07098 -0.06235,0.169672 -0.02814,0.04261 -0.05995,0.09727 -0.07071,0.121487 -0.0314,0.07068 -0.113376,0.203517 -0.218512,0.354104 -0.09564,0.136998 -0.09952,0.14128 -0.17543,0.193905 -0.136473,0.09461 -0.200548,0.146306 -0.252789,0.203942 l -0.05097,0.05624 -0.03174,-0.02867 c -0.08229,-0.07435 -0.193253,-0.09154 -0.289578,-0.04488 -0.02853,0.01382 -0.07151,0.03688 -0.0955,0.05125 -0.024,0.01437 -0.04222,0.02281 -0.04049,0.01874 0.0018,-0.004 0.01675,-0.03472 0.03338,-0.06813 0.07199,-0.144552 0.0732,-0.28246 0.0034,-0.385203 -0.01151,-0.01694 -0.04246,-0.04958 -0.06878,-0.07254 l -0.04785,-0.04174 -0.10428,-0.0178 c -0.160031,-0.02731 -0.241273,-0.03275 -0.574033,-0.03848 -0.391947,-0.0067 -0.502891,0.0013 -0.846359,0.06196 -0.0735,0.01297 -0.182838,0.02908 -0.242974,0.03581 -0.180927,0.02024 -0.549196,0.03654 -0.781567,0.0346 l -0.218677,-0.0019 -0.121486,0.02987 c -0.06682,0.01642 -0.166249,0.03938 -0.220957,0.05101 -0.05471,0.01163 -0.171885,0.0444 -0.260394,0.07283 -0.169041,0.05429 -0.228686,0.06831 -0.381207,0.0896 -0.05122,0.0072 -0.167855,0.02888 -0.259173,0.0483 -0.09132,0.01941 -0.22799,0.04663 -0.303717,0.06049 -0.07573,0.01386 -0.226978,0.04671 -0.336115,0.073 -0.223319,0.05381 -0.30928,0.06936 -0.422417,0.07643 -0.09602,0.006 -0.199763,0.0244 -0.408957,0.07253 -0.225365,0.05185 -0.691921,0.147739 -0.81275,0.167038 -0.05568,0.0089 -0.124462,0.01617 -0.152844,0.01617 -0.07132,2e-6 -0.2005834,0.01983 -0.3493024,0.05359 -0.328919,0.07465 -0.338778,0.07616 -0.5507416,0.08404 -0.2189877,0.0082 -0.2603952,0.0134 -0.3776347,0.04798 -0.043982,0.01297 -0.1091235,0.02784 -0.1447597,0.03303 -0.098781,0.0144 -0.1952219,0.03696 -0.3685106,0.08621 -0.1078665,0.03065 -0.20042,0.05101 -0.2919559,0.06424 -0.074125,0.01071 -0.222532,0.0414 -0.3320646,0.06866 -0.108923,0.02712 -0.2417772,0.05647 -0.2952315,0.06523 -0.053455,0.0087 -0.1773711,0.03431 -0.2753707,0.05678 -0.1778635,0.04078 -0.4892525,0.104384 -0.5110293,0.104384 -0.00632,0 -0.043363,-0.02865 -0.082302,-0.06368 z"
       id="path4673"
       inkscape:connector-curvature="0" />
    <path
       style="fill:#000000;fill-opacity:1;stroke:#000000;stroke-width:0.00202478;stroke-miterlimit:4;stroke-dasharray:none;stroke-opacity:1"
       d="m 15.070796,23.152366 -0.0046,-0.02691 0.03029,-0.04647 c 0.01666,-0.02555 0.03116,-0.0456 0.03222,-0.04455 0.001,0.001 -0.0027,0.02811 -0.0083,0.06012 -0.0056,0.032 -0.01016,0.05959 -0.01016,0.06129 0,0.0026 -0.02976,0.02344 -0.03352,0.02344 -7.05e-4,0 -0.0033,-0.01211 -0.0059,-0.02691 z"
       id="path4696"
       inkscape:connector-curvature="0" />
    <path
       style="fill:#000000;fill-opacity:1;stroke:#000000;stroke-width:0.00202478;stroke-miterlimit:4;stroke-dasharray:none;stroke-opacity:1"
       d="m 11.657721,23.8544 c -0.0046,-0.01185 0.0011,-0.183544 0.0079,-0.23979 0.01087,-0.08996 1.05e-4,-0.175638 -0.03334,-0.265246 -0.01816,-0.04865 -0.05436,-0.113834 -0.08021,-0.144406 -0.01706,-0.02018 -0.01766,-0.02183 -0.01774,-0.04859 -8.7e-5,-0.03247 -0.0091,-0.100808 -0.01863,-0.14109 -0.01355,-0.05734 -0.06103,-0.161721 -0.09075,-0.199498 -0.01596,-0.0203 -0.01222,-0.02359 0.03758,-0.0329 0.068,-0.01272 0.09913,-0.01633 0.177168,-0.02051 0.111567,-0.006 0.191671,-0.02094 0.467726,-0.08739 0.159262,-0.03834 0.227292,-0.05279 0.342188,-0.07265 0.03452,-0.006 0.130194,-0.02517 0.212602,-0.04266 0.236037,-0.0501 0.289039,-0.05973 0.388759,-0.07067 0.09274,-0.01016 0.157505,-0.02659 0.344213,-0.08725 0.141228,-0.04588 0.22702,-0.06927 0.289544,-0.07892 0.02339,-0.0036 0.08625,-0.01785 0.139711,-0.03164 l 0.09719,-0.02508 0.242974,0 c 0.145379,0 0.280385,-0.0021 0.336115,-0.0052 0.364149,-0.02017 0.52331,-0.03745 0.754269,-0.08191 0.0798,-0.01536 0.186156,-0.03026 0.280394,-0.03928 0.06009,-0.0057 0.112585,-0.0072 0.265248,-0.0069 0.104681,1.37e-4 0.226242,0.0017 0.270134,0.0034 l 0.0798,0.0031 -0.0158,0.03095 c -0.01881,0.03682 -0.08608,0.143566 -0.132425,0.210108 -0.07604,0.109179 -0.151295,0.191893 -0.221959,0.243968 -0.06362,0.04688 -0.151499,0.118266 -0.225468,0.183147 l -0.06792,0.05958 -0.0416,0.01268 c -0.101275,0.03086 -0.121859,0.03779 -0.177201,0.05963 -0.03226,0.01273 -0.07509,0.03135 -0.09517,0.04137 -0.03148,0.01572 -0.03669,0.01977 -0.0378,0.02942 -0.0017,0.01402 -0.01684,0.02222 -0.06958,0.03749 -0.02263,0.0065 -0.08765,0.0341 -0.157933,0.06691 -0.201029,0.09385 -0.285999,0.126903 -0.379375,0.147572 -0.06904,0.01528 -0.152476,0.03718 -0.310043,0.08135 -0.206245,0.05783 -0.347789,0.09186 -0.436362,0.104917 -0.01006,0.0015 -0.08656,0.02522 -0.170081,0.05277 -0.275778,0.09096 -0.369028,0.118606 -0.520248,0.154274 -0.0513,0.0121 -0.155221,0.03834 -0.230948,0.05831 -0.221185,0.05834 -0.324554,0.07997 -0.425709,0.08905 -0.05359,0.0048 -0.08006,0.0084 -0.14528,0.01996 -0.142805,0.02519 -0.242048,0.03305 -0.448431,0.03553 -0.159949,0.0019 -0.181437,0.0015 -0.18353,-0.004 z"
       id="path4698"
       inkscape:connector-curvature="0" />
    <path
       style="fill:#000000;fill-opacity:1;stroke:#000000;stroke-width:0.20733789;stroke-miterlimit:4;stroke-dasharray:none;stroke-opacity:1"
       d="m 9.1260339,23.854272 c -0.161065,-0.0031 -0.2626302,-0.0081 -0.374585,-0.01829 -0.1254445,-0.01149 -0.1543618,-0.01702 -0.3685392,-0.0706 -0.1816862,-0.04545 -0.2760741,-0.06324 -0.3765814,-0.07095 -0.043586,-0.0033 -0.1325842,-0.02459 -0.2794201,-0.0667 -0.1294594,-0.03712 -0.2382396,-0.06524 -0.283107,-0.07316 -0.021668,-0.0038 -0.027859,-0.0062 -0.022272,-0.0085 0.013111,-0.0054 0.1072938,-0.02299 0.1704487,-0.03194 0.039127,-0.0055 0.11498,-0.0224 0.217947,-0.04844 0.2502094,-0.06329 0.3186041,-0.07722 0.4187056,-0.08531 0.063158,-0.0051 0.095405,-0.01259 0.276243,-0.06412 0.2070006,-0.05899 0.2787594,-0.07539 0.3745524,-0.08562 0.02585,-0.0028 0.06426,-0.01065 0.092725,-0.01904 0.026727,-0.0079 0.068972,-0.02037 0.093877,-0.02774 0.05568,-0.01648 0.1050757,-0.02183 0.2031829,-0.02198 0.089005,-1.36e-4 0.2102458,-0.0058 0.2569618,-0.01211 0.06536,-0.0087 0.188987,-0.03303 0.300437,-0.05899 0.2405464,-0.05602 0.2951274,-0.06543 0.4069824,-0.07013 0.06062,-0.0026 0.07553,-0.0021 0.07814,0.0023 0.0018,0.003 0.01389,0.01882 0.02693,0.03524 0.01945,0.02448 0.02529,0.03559 0.03247,0.06176 0.01781,0.06492 0.05079,0.134219 0.09135,0.191972 l 0.02136,0.0304 -0.0022,0.0771 c -0.0034,0.122339 0.0067,0.193261 0.03999,0.279216 0.01403,0.0362 0.02469,0.05491 0.05696,0.0999 0.02183,0.03045 0.0397,0.05641 0.0397,0.0577 0,0.0033 -1.3057554,0.0017 -1.4922653,-0.002 z"
       id="path4702"
       inkscape:connector-curvature="0" />
  </g>
  <g
     inkscape:label="Calque 1"
     inkscape:groupmode="layer"
     id="layer1"
     transform="translate(-223.26217,-584.81825)" />
</svg>
