<?xml version="1.0" encoding="UTF-8" standalone="no"?>
<!-- Created with Inkscape (http://www.inkscape.org/) -->

<svg
   xmlns:dc="http://purl.org/dc/elements/1.1/"
   xmlns:cc="http://creativecommons.org/ns#"
   xmlns:rdf="http://www.w3.org/1999/02/22-rdf-syntax-ns#"
   xmlns:svg="http://www.w3.org/2000/svg"
   xmlns="http://www.w3.org/2000/svg"
   xmlns:sodipodi="http://sodipodi.sourceforge.net/DTD/sodipodi-0.dtd"
   xmlns:inkscape="http://www.inkscape.org/namespaces/inkscape"
   width="91.726418mm"
   height="85.938255mm"
   viewBox="0 0 325.01487 304.50563"
   id="svg2"
   version="1.1"
   inkscape:version="0.91 r"
   sodipodi:docname="player.svg"
   inkscape:export-filename="/home/maxime/src/wondershot/assets/player.png"
   inkscape:export-xdpi="90"
   inkscape:export-ydpi="90">
  <defs
     id="defs4" />
  <sodipodi:namedview
     id="base"
     pagecolor="#ffffff"
     bordercolor="#666666"
     borderopacity="1.0"
     inkscape:pageopacity="0.0"
     inkscape:pageshadow="2"
     inkscape:zoom="1.4"
     inkscape:cx="-12.194928"
     inkscape:cy="197.48304"
     inkscape:document-units="px"
     inkscape:current-layer="layer1"
     showgrid="false"
     fit-margin-bottom="-0.2"
     fit-margin-top="0"
     fit-margin-left="0"
     fit-margin-right="0"
     inkscape:window-width="1920"
     inkscape:window-height="1028"
     inkscape:window-x="0"
     inkscape:window-y="0"
     inkscape:window-maximized="1" />
  <metadata
     id="metadata7">
    <rdf:RDF>
      <cc:Work
         rdf:about="">
        <dc:format>image/svg+xml</dc:format>
        <dc:type
           rdf:resource="http://purl.org/dc/dcmitype/StillImage" />
        <dc:title></dc:title>
      </cc:Work>
    </rdf:RDF>
  </metadata>
  <g
     inkscape:label="Calque 1"
     inkscape:groupmode="layer"
     id="layer1"
     transform="translate(-89.913727,-347.79078)">
    <circle
       style="fill:#ffffff;stroke:#ff0000;stroke-width:2;stroke-miterlimit:4;stroke-dasharray:none;stroke-opacity:1"
       id="path3338"
       cx="233.85031"
       cy="500.31384"
       r="142.93658" />
    <ellipse
       style="fill:#ffffff;stroke:#ff0000;stroke-width:2;stroke-miterlimit:4;stroke-dasharray:none;stroke-opacity:1"
       id="path3340"
       cx="290.71429"
       cy="364.86221"
       rx="123.21429"
       ry="16.071428" />
    <ellipse
       style="fill:#ffffff;stroke:#ff0000;stroke-width:2;stroke-miterlimit:4;stroke-dasharray:none;stroke-opacity:1"
       id="path3340-4"
       cx="290.71429"
       cy="635.93365"
       rx="123.21429"
       ry="16.071428" />
    <circle
       style="fill:#000000;stroke:#ff0000;stroke-width:2;stroke-miterlimit:4;stroke-dasharray:none;stroke-opacity:1"
       id="path3363"
       cx="326.78571"
       cy="455.57648"
       r="11.785714" />
    <circle
       style="fill:#000000;stroke:#ff0000;stroke-width:2;stroke-miterlimit:4;stroke-dasharray:none;stroke-opacity:1"
       id="path3363-4"
       cx="327.85715"
       cy="533.07654"
       r="11.785714" />
    <path
       style="fill:#ffd5d5;stroke:#ff0000;stroke-width:2;stroke-miterlimit:4;stroke-dasharray:none;stroke-opacity:1"
       d="M 75.185151,276.21548 C 28.125496,249.47328 0.59723132,200.57888 2.6085119,147.3083 3.272934,129.71049 6.2547955,115.6156 12.703575,99.590205 19.643196,82.34506 28.939353,68.050842 41.999613,54.543208 53.275597,42.880972 64.091863,34.661666 78.187737,27.043773 c 5.375142,-2.904914 6.418314,-3.238578 8.111942,-2.594662 3.690693,1.403198 19.329361,4.248706 31.076821,5.654533 23.89467,2.85949 52.35734,4.330393 83.99512,4.340729 l 20.78084,0.0068 4.93345,3.482355 c 25.63134,18.092299 45.76014,47.595411 53.83251,78.903212 5.71577,22.16796 5.86257,47.95002 0.39717,69.75729 -7.91707,31.58963 -26.87702,60.07575 -52.85637,79.4134 l -6.27634,4.67177 -32.22462,0.41261 c -17.72354,0.22693 -37.04604,0.7618 -42.9389,1.18862 -24.21374,1.75376 -48.139988,4.92242 -57.093931,7.56121 -1.937378,0.57095 -4.199714,1.0381 -5.027428,1.0381 -0.827707,0 -5.198486,-2.09891 -9.71285,-4.66425 z M 243.66197,197.01493 c 12.7163,-6.6433 7.4972,-25.73032 -6.7134,-24.55187 -8.10739,0.67233 -13.37579,7.81364 -11.59885,15.72222 0.8455,3.76302 3.34035,7.10822 6.4408,8.63605 2.92727,1.44251 9.28247,1.54615 11.87145,0.1936 z m -2.6058,-76.86763 c 3.29184,-0.91432 7.42408,-5.40861 8.43924,-9.17863 2.51542,-9.34156 -6.38657,-18.308467 -15.68913,-15.803544 -3.50339,0.943357 -7.73032,4.519436 -9.03618,7.644794 -1.27163,3.04346 -1.22176,6.78696 0.13364,10.0309 1.47996,3.54204 3.00289,5.13496 6.40133,6.69553 3.24166,1.48858 5.97489,1.65983 9.7511,0.61095 z"
       id="path3382"
       inkscape:connector-curvature="0"
       transform="translate(89.913727,347.79078)" />
    <path
       style="fill:#ffd5d5;stroke:#ff0000;stroke-width:2;stroke-miterlimit:4;stroke-dasharray:none;stroke-opacity:1"
       d="M 157.3765,30.853823 C 116.89316,28.619013 86.964401,23.931859 80.252032,18.775332 78.520144,17.444873 78.51135,17.388208 79.813476,15.949375 83.688502,11.66752 104.95913,7.4003429 135.23364,4.8313354 c 39.47333,-3.3495919 94.78833,-3.1962806 135.71429,0.3761463 28.02424,2.446236 50.51301,7.5194763 51.29369,11.5713383 0.93106,4.832383 -24.11386,10.082672 -62.36512,13.073905 -17.3235,1.354691 -84.25319,2.00838 -102.5,1.001098 z"
       id="path3384"
       inkscape:connector-curvature="0"
       transform="translate(89.913727,347.79078)" />
    <path
       style="fill:#ffd5d5;stroke:#ff0000;stroke-width:2;stroke-miterlimit:4;stroke-dasharray:none;stroke-opacity:1"
       d="m 174.51936,302.59454 c -51.71688,-1.85439 -89.82441,-7.26431 -94.986953,-13.4848 -0.92492,-1.11446 -0.86415,-1.39178 0.557197,-2.54272 5.410847,-4.38143 27.645476,-8.50742 60.220626,-11.17487 19.52016,-1.59844 96.65156,-1.84659 115.99484,-0.3732 41.20922,3.13895 66.07143,8.22304 66.07143,13.51101 0,3.74635 -23.84688,8.98339 -52.85714,11.60801 -21.36158,1.93262 -72.63536,3.25849 -95,2.45657 z"
       id="path3386"
       inkscape:connector-curvature="0"
       transform="translate(89.913727,347.79078)"
       inkscape:export-filename="/home/maxime/src/wondershot/src/assets/images/player.png"
       inkscape:export-xdpi="90"
       inkscape:export-ydpi="90" />
  </g>
</svg>
